G04 #@! TF.GenerationSoftware,KiCad,Pcbnew,(5.1.5)-3*
G04 #@! TF.CreationDate,2020-04-01T15:23:21+02:00*
G04 #@! TF.ProjectId,hbruecke,68627275-6563-46b6-952e-6b696361645f,rev?*
G04 #@! TF.SameCoordinates,Original*
G04 #@! TF.FileFunction,Legend,Bot*
G04 #@! TF.FilePolarity,Positive*
%FSLAX46Y46*%
G04 Gerber Fmt 4.6, Leading zero omitted, Abs format (unit mm)*
G04 Created by KiCad (PCBNEW (5.1.5)-3) date 2020-04-01 15:23:21*
%MOMM*%
%LPD*%
G04 APERTURE LIST*
%ADD10C,0.050000*%
%ADD11C,0.300000*%
G04 APERTURE END LIST*
D10*
X154940000Y-77470000D02*
X63500000Y-77470000D01*
X154940000Y-148590000D02*
X154940000Y-77470000D01*
X63500000Y-148590000D02*
X154940000Y-148590000D01*
X63500000Y-77470000D02*
X63500000Y-148590000D01*
D11*
X144723571Y-125543571D02*
X144723571Y-126615000D01*
X144795000Y-126829285D01*
X144937857Y-126972142D01*
X145152142Y-127043571D01*
X145295000Y-127043571D01*
X143295000Y-127043571D02*
X144009285Y-127043571D01*
X144009285Y-125543571D01*
X141937857Y-126900714D02*
X142009285Y-126972142D01*
X142223571Y-127043571D01*
X142366428Y-127043571D01*
X142580714Y-126972142D01*
X142723571Y-126829285D01*
X142795000Y-126686428D01*
X142866428Y-126400714D01*
X142866428Y-126186428D01*
X142795000Y-125900714D01*
X142723571Y-125757857D01*
X142580714Y-125615000D01*
X142366428Y-125543571D01*
X142223571Y-125543571D01*
X142009285Y-125615000D01*
X141937857Y-125686428D01*
X140866428Y-125543571D02*
X140866428Y-126615000D01*
X140937857Y-126829285D01*
X141080714Y-126972142D01*
X141295000Y-127043571D01*
X141437857Y-127043571D01*
X139437857Y-127043571D02*
X140152142Y-127043571D01*
X140152142Y-125543571D01*
X138080714Y-126900714D02*
X138152142Y-126972142D01*
X138366428Y-127043571D01*
X138509285Y-127043571D01*
X138723571Y-126972142D01*
X138866428Y-126829285D01*
X138937857Y-126686428D01*
X139009285Y-126400714D01*
X139009285Y-126186428D01*
X138937857Y-125900714D01*
X138866428Y-125757857D01*
X138723571Y-125615000D01*
X138509285Y-125543571D01*
X138366428Y-125543571D01*
X138152142Y-125615000D01*
X138080714Y-125686428D01*
X137009285Y-125543571D02*
X137009285Y-126615000D01*
X137080714Y-126829285D01*
X137223571Y-126972142D01*
X137437857Y-127043571D01*
X137580714Y-127043571D01*
X135580714Y-127043571D02*
X136295000Y-127043571D01*
X136295000Y-125543571D01*
X134223571Y-126900714D02*
X134295000Y-126972142D01*
X134509285Y-127043571D01*
X134652142Y-127043571D01*
X134866428Y-126972142D01*
X135009285Y-126829285D01*
X135080714Y-126686428D01*
X135152142Y-126400714D01*
X135152142Y-126186428D01*
X135080714Y-125900714D01*
X135009285Y-125757857D01*
X134866428Y-125615000D01*
X134652142Y-125543571D01*
X134509285Y-125543571D01*
X134295000Y-125615000D01*
X134223571Y-125686428D01*
X133152142Y-125543571D02*
X133152142Y-126615000D01*
X133223571Y-126829285D01*
X133366428Y-126972142D01*
X133580714Y-127043571D01*
X133723571Y-127043571D01*
X131723571Y-127043571D02*
X132437857Y-127043571D01*
X132437857Y-125543571D01*
X130366428Y-126900714D02*
X130437857Y-126972142D01*
X130652142Y-127043571D01*
X130795000Y-127043571D01*
X131009285Y-126972142D01*
X131152142Y-126829285D01*
X131223571Y-126686428D01*
X131295000Y-126400714D01*
X131295000Y-126186428D01*
X131223571Y-125900714D01*
X131152142Y-125757857D01*
X131009285Y-125615000D01*
X130795000Y-125543571D01*
X130652142Y-125543571D01*
X130437857Y-125615000D01*
X130366428Y-125686428D01*
M02*
