G04 #@! TF.GenerationSoftware,KiCad,Pcbnew,(5.1.5)-3*
G04 #@! TF.CreationDate,2020-04-01T15:23:21+02:00*
G04 #@! TF.ProjectId,hbruecke,68627275-6563-46b6-952e-6b696361645f,rev?*
G04 #@! TF.SameCoordinates,Original*
G04 #@! TF.FileFunction,Legend,Top*
G04 #@! TF.FilePolarity,Positive*
%FSLAX46Y46*%
G04 Gerber Fmt 4.6, Leading zero omitted, Abs format (unit mm)*
G04 Created by KiCad (PCBNEW (5.1.5)-3) date 2020-04-01 15:23:21*
%MOMM*%
%LPD*%
G04 APERTURE LIST*
%ADD10C,0.300000*%
%ADD11C,0.050000*%
%ADD12C,0.150000*%
%ADD13C,0.120000*%
%ADD14C,0.200000*%
%ADD15C,0.254000*%
G04 APERTURE END LIST*
D10*
X117118571Y-83223571D02*
X117118571Y-81723571D01*
X117118571Y-82437857D02*
X117975714Y-82437857D01*
X117975714Y-83223571D02*
X117975714Y-81723571D01*
X119332857Y-83223571D02*
X119332857Y-82437857D01*
X119261428Y-82295000D01*
X119118571Y-82223571D01*
X118832857Y-82223571D01*
X118690000Y-82295000D01*
X119332857Y-83152142D02*
X119190000Y-83223571D01*
X118832857Y-83223571D01*
X118690000Y-83152142D01*
X118618571Y-83009285D01*
X118618571Y-82866428D01*
X118690000Y-82723571D01*
X118832857Y-82652142D01*
X119190000Y-82652142D01*
X119332857Y-82580714D01*
X120261428Y-83223571D02*
X120118571Y-83152142D01*
X120047142Y-83009285D01*
X120047142Y-81723571D01*
X120618571Y-82223571D02*
X121190000Y-82223571D01*
X120832857Y-83223571D02*
X120832857Y-81937857D01*
X120904285Y-81795000D01*
X121047142Y-81723571D01*
X121190000Y-81723571D01*
X123332857Y-82437857D02*
X123547142Y-82509285D01*
X123618571Y-82580714D01*
X123690000Y-82723571D01*
X123690000Y-82937857D01*
X123618571Y-83080714D01*
X123547142Y-83152142D01*
X123404285Y-83223571D01*
X122832857Y-83223571D01*
X122832857Y-81723571D01*
X123332857Y-81723571D01*
X123475714Y-81795000D01*
X123547142Y-81866428D01*
X123618571Y-82009285D01*
X123618571Y-82152142D01*
X123547142Y-82295000D01*
X123475714Y-82366428D01*
X123332857Y-82437857D01*
X122832857Y-82437857D01*
X124332857Y-83223571D02*
X124332857Y-82223571D01*
X124332857Y-82509285D02*
X124404285Y-82366428D01*
X124475714Y-82295000D01*
X124618571Y-82223571D01*
X124761428Y-82223571D01*
X125261428Y-83223571D02*
X125261428Y-82223571D01*
X125261428Y-81723571D02*
X125190000Y-81795000D01*
X125261428Y-81866428D01*
X125332857Y-81795000D01*
X125261428Y-81723571D01*
X125261428Y-81866428D01*
X126618571Y-83223571D02*
X126618571Y-81723571D01*
X126618571Y-83152142D02*
X126475714Y-83223571D01*
X126190000Y-83223571D01*
X126047142Y-83152142D01*
X125975714Y-83080714D01*
X125904285Y-82937857D01*
X125904285Y-82509285D01*
X125975714Y-82366428D01*
X126047142Y-82295000D01*
X126190000Y-82223571D01*
X126475714Y-82223571D01*
X126618571Y-82295000D01*
X127975714Y-82223571D02*
X127975714Y-83437857D01*
X127904285Y-83580714D01*
X127832857Y-83652142D01*
X127690000Y-83723571D01*
X127475714Y-83723571D01*
X127332857Y-83652142D01*
X127975714Y-83152142D02*
X127832857Y-83223571D01*
X127547142Y-83223571D01*
X127404285Y-83152142D01*
X127332857Y-83080714D01*
X127261428Y-82937857D01*
X127261428Y-82509285D01*
X127332857Y-82366428D01*
X127404285Y-82295000D01*
X127547142Y-82223571D01*
X127832857Y-82223571D01*
X127975714Y-82295000D01*
X129261428Y-83152142D02*
X129118571Y-83223571D01*
X128832857Y-83223571D01*
X128690000Y-83152142D01*
X128618571Y-83009285D01*
X128618571Y-82437857D01*
X128690000Y-82295000D01*
X128832857Y-82223571D01*
X129118571Y-82223571D01*
X129261428Y-82295000D01*
X129332857Y-82437857D01*
X129332857Y-82580714D01*
X128618571Y-82723571D01*
X117190000Y-85773571D02*
X117190000Y-84773571D01*
X117190000Y-84916428D02*
X117261428Y-84845000D01*
X117404285Y-84773571D01*
X117618571Y-84773571D01*
X117761428Y-84845000D01*
X117832857Y-84987857D01*
X117832857Y-85773571D01*
X117832857Y-84987857D02*
X117904285Y-84845000D01*
X118047142Y-84773571D01*
X118261428Y-84773571D01*
X118404285Y-84845000D01*
X118475714Y-84987857D01*
X118475714Y-85773571D01*
X119832857Y-85773571D02*
X119832857Y-84987857D01*
X119761428Y-84845000D01*
X119618571Y-84773571D01*
X119332857Y-84773571D01*
X119190000Y-84845000D01*
X119832857Y-85702142D02*
X119690000Y-85773571D01*
X119332857Y-85773571D01*
X119190000Y-85702142D01*
X119118571Y-85559285D01*
X119118571Y-85416428D01*
X119190000Y-85273571D01*
X119332857Y-85202142D01*
X119690000Y-85202142D01*
X119832857Y-85130714D01*
X120404285Y-85773571D02*
X121190000Y-84773571D01*
X120404285Y-84773571D02*
X121190000Y-85773571D01*
X123690000Y-85773571D02*
X122832857Y-85773571D01*
X123261428Y-85773571D02*
X123261428Y-84273571D01*
X123118571Y-84487857D01*
X122975714Y-84630714D01*
X122832857Y-84702142D01*
X124261428Y-84416428D02*
X124332857Y-84345000D01*
X124475714Y-84273571D01*
X124832857Y-84273571D01*
X124975714Y-84345000D01*
X125047142Y-84416428D01*
X125118571Y-84559285D01*
X125118571Y-84702142D01*
X125047142Y-84916428D01*
X124190000Y-85773571D01*
X125118571Y-85773571D01*
X126047142Y-84273571D02*
X126190000Y-84273571D01*
X126332857Y-84345000D01*
X126404285Y-84416428D01*
X126475714Y-84559285D01*
X126547142Y-84845000D01*
X126547142Y-85202142D01*
X126475714Y-85487857D01*
X126404285Y-85630714D01*
X126332857Y-85702142D01*
X126190000Y-85773571D01*
X126047142Y-85773571D01*
X125904285Y-85702142D01*
X125832857Y-85630714D01*
X125761428Y-85487857D01*
X125690000Y-85202142D01*
X125690000Y-84845000D01*
X125761428Y-84559285D01*
X125832857Y-84416428D01*
X125904285Y-84345000D01*
X126047142Y-84273571D01*
X127475714Y-84273571D02*
X127618571Y-84273571D01*
X127761428Y-84345000D01*
X127832857Y-84416428D01*
X127904285Y-84559285D01*
X127975714Y-84845000D01*
X127975714Y-85202142D01*
X127904285Y-85487857D01*
X127832857Y-85630714D01*
X127761428Y-85702142D01*
X127618571Y-85773571D01*
X127475714Y-85773571D01*
X127332857Y-85702142D01*
X127261428Y-85630714D01*
X127190000Y-85487857D01*
X127118571Y-85202142D01*
X127118571Y-84845000D01*
X127190000Y-84559285D01*
X127261428Y-84416428D01*
X127332857Y-84345000D01*
X127475714Y-84273571D01*
X128404285Y-84273571D02*
X128904285Y-85773571D01*
X129404285Y-84273571D01*
D11*
X154940000Y-77470000D02*
X63500000Y-77470000D01*
X154940000Y-148590000D02*
X154940000Y-77470000D01*
X63500000Y-148590000D02*
X154940000Y-148590000D01*
X63500000Y-77470000D02*
X63500000Y-148590000D01*
D10*
X114062857Y-89348571D02*
X114562857Y-90848571D01*
X115062857Y-89348571D01*
X116134285Y-90777142D02*
X115991428Y-90848571D01*
X115705714Y-90848571D01*
X115562857Y-90777142D01*
X115491428Y-90634285D01*
X115491428Y-90062857D01*
X115562857Y-89920000D01*
X115705714Y-89848571D01*
X115991428Y-89848571D01*
X116134285Y-89920000D01*
X116205714Y-90062857D01*
X116205714Y-90205714D01*
X115491428Y-90348571D01*
X116848571Y-90848571D02*
X116848571Y-89848571D01*
X116848571Y-90134285D02*
X116920000Y-89991428D01*
X116991428Y-89920000D01*
X117134285Y-89848571D01*
X117277142Y-89848571D01*
X117634285Y-89848571D02*
X117991428Y-90848571D01*
X118348571Y-89848571D01*
X119134285Y-90848571D02*
X118991428Y-90777142D01*
X118920000Y-90705714D01*
X118848571Y-90562857D01*
X118848571Y-90134285D01*
X118920000Y-89991428D01*
X118991428Y-89920000D01*
X119134285Y-89848571D01*
X119348571Y-89848571D01*
X119491428Y-89920000D01*
X119562857Y-89991428D01*
X119634285Y-90134285D01*
X119634285Y-90562857D01*
X119562857Y-90705714D01*
X119491428Y-90777142D01*
X119348571Y-90848571D01*
X119134285Y-90848571D01*
X120491428Y-90848571D02*
X120348571Y-90777142D01*
X120277142Y-90705714D01*
X120205714Y-90562857D01*
X120205714Y-90134285D01*
X120277142Y-89991428D01*
X120348571Y-89920000D01*
X120491428Y-89848571D01*
X120705714Y-89848571D01*
X120848571Y-89920000D01*
X120920000Y-89991428D01*
X120991428Y-90134285D01*
X120991428Y-90562857D01*
X120920000Y-90705714D01*
X120848571Y-90777142D01*
X120705714Y-90848571D01*
X120491428Y-90848571D01*
X121634285Y-90848571D02*
X121634285Y-89848571D01*
X121634285Y-90134285D02*
X121705714Y-89991428D01*
X121777142Y-89920000D01*
X121920000Y-89848571D01*
X122062857Y-89848571D01*
X122348571Y-89848571D02*
X122920000Y-89848571D01*
X122562857Y-89348571D02*
X122562857Y-90634285D01*
X122634285Y-90777142D01*
X122777142Y-90848571D01*
X122920000Y-90848571D01*
X124491428Y-89491428D02*
X124562857Y-89420000D01*
X124705714Y-89348571D01*
X125062857Y-89348571D01*
X125205714Y-89420000D01*
X125277142Y-89491428D01*
X125348571Y-89634285D01*
X125348571Y-89777142D01*
X125277142Y-89991428D01*
X124420000Y-90848571D01*
X125348571Y-90848571D01*
X126277142Y-89348571D02*
X126420000Y-89348571D01*
X126562857Y-89420000D01*
X126634285Y-89491428D01*
X126705714Y-89634285D01*
X126777142Y-89920000D01*
X126777142Y-90277142D01*
X126705714Y-90562857D01*
X126634285Y-90705714D01*
X126562857Y-90777142D01*
X126420000Y-90848571D01*
X126277142Y-90848571D01*
X126134285Y-90777142D01*
X126062857Y-90705714D01*
X125991428Y-90562857D01*
X125920000Y-90277142D01*
X125920000Y-89920000D01*
X125991428Y-89634285D01*
X126062857Y-89491428D01*
X126134285Y-89420000D01*
X126277142Y-89348571D01*
X127348571Y-89491428D02*
X127420000Y-89420000D01*
X127562857Y-89348571D01*
X127920000Y-89348571D01*
X128062857Y-89420000D01*
X128134285Y-89491428D01*
X128205714Y-89634285D01*
X128205714Y-89777142D01*
X128134285Y-89991428D01*
X127277142Y-90848571D01*
X128205714Y-90848571D01*
X129134285Y-89348571D02*
X129277142Y-89348571D01*
X129420000Y-89420000D01*
X129491428Y-89491428D01*
X129562857Y-89634285D01*
X129634285Y-89920000D01*
X129634285Y-90277142D01*
X129562857Y-90562857D01*
X129491428Y-90705714D01*
X129420000Y-90777142D01*
X129277142Y-90848571D01*
X129134285Y-90848571D01*
X128991428Y-90777142D01*
X128920000Y-90705714D01*
X128848571Y-90562857D01*
X128777142Y-90277142D01*
X128777142Y-89920000D01*
X128848571Y-89634285D01*
X128920000Y-89491428D01*
X128991428Y-89420000D01*
X129134285Y-89348571D01*
X94678571Y-81387142D02*
X95821428Y-81387142D01*
X107378571Y-81387142D02*
X108521428Y-81387142D01*
X101028571Y-81387142D02*
X102171428Y-81387142D01*
X101600000Y-81958571D02*
X101600000Y-80815714D01*
X88328571Y-81387142D02*
X89471428Y-81387142D01*
X88900000Y-81958571D02*
X88900000Y-80815714D01*
X103889285Y-78061428D02*
X103889285Y-79561428D01*
X103317857Y-79561428D01*
X103175000Y-79490000D01*
X103103571Y-79418571D01*
X103032142Y-79275714D01*
X103032142Y-79061428D01*
X103103571Y-78918571D01*
X103175000Y-78847142D01*
X103317857Y-78775714D01*
X103889285Y-78775714D01*
X102175000Y-78061428D02*
X102317857Y-78132857D01*
X102389285Y-78204285D01*
X102460714Y-78347142D01*
X102460714Y-78775714D01*
X102389285Y-78918571D01*
X102317857Y-78990000D01*
X102175000Y-79061428D01*
X101960714Y-79061428D01*
X101817857Y-78990000D01*
X101746428Y-78918571D01*
X101675000Y-78775714D01*
X101675000Y-78347142D01*
X101746428Y-78204285D01*
X101817857Y-78132857D01*
X101960714Y-78061428D01*
X102175000Y-78061428D01*
X101175000Y-79061428D02*
X100889285Y-78061428D01*
X100603571Y-78775714D01*
X100317857Y-78061428D01*
X100032142Y-79061428D01*
X98889285Y-78132857D02*
X99032142Y-78061428D01*
X99317857Y-78061428D01*
X99460714Y-78132857D01*
X99532142Y-78275714D01*
X99532142Y-78847142D01*
X99460714Y-78990000D01*
X99317857Y-79061428D01*
X99032142Y-79061428D01*
X98889285Y-78990000D01*
X98817857Y-78847142D01*
X98817857Y-78704285D01*
X99532142Y-78561428D01*
X98175000Y-78061428D02*
X98175000Y-79061428D01*
X98175000Y-78775714D02*
X98103571Y-78918571D01*
X98032142Y-78990000D01*
X97889285Y-79061428D01*
X97746428Y-79061428D01*
X96317857Y-79561428D02*
X95817857Y-78061428D01*
X95317857Y-79561428D01*
X94175000Y-78132857D02*
X94317857Y-78061428D01*
X94603571Y-78061428D01*
X94746428Y-78132857D01*
X94817857Y-78204285D01*
X94889285Y-78347142D01*
X94889285Y-78775714D01*
X94817857Y-78918571D01*
X94746428Y-78990000D01*
X94603571Y-79061428D01*
X94317857Y-79061428D01*
X94175000Y-78990000D01*
X92889285Y-78132857D02*
X93032142Y-78061428D01*
X93317857Y-78061428D01*
X93460714Y-78132857D01*
X93532142Y-78204285D01*
X93603571Y-78347142D01*
X93603571Y-78775714D01*
X93532142Y-78918571D01*
X93460714Y-78990000D01*
X93317857Y-79061428D01*
X93032142Y-79061428D01*
X92889285Y-78990000D01*
D12*
X145502380Y-98940476D02*
X145502380Y-98750000D01*
X145550000Y-98654761D01*
X145645238Y-98559523D01*
X145835714Y-98511904D01*
X146169047Y-98511904D01*
X146359523Y-98559523D01*
X146454761Y-98654761D01*
X146502380Y-98750000D01*
X146502380Y-98940476D01*
X146454761Y-99035714D01*
X146359523Y-99130952D01*
X146169047Y-99178571D01*
X145835714Y-99178571D01*
X145645238Y-99130952D01*
X145550000Y-99035714D01*
X145502380Y-98940476D01*
X145835714Y-97654761D02*
X146502380Y-97654761D01*
X145835714Y-98083333D02*
X146359523Y-98083333D01*
X146454761Y-98035714D01*
X146502380Y-97940476D01*
X146502380Y-97797619D01*
X146454761Y-97702380D01*
X146407142Y-97654761D01*
X145835714Y-97321428D02*
X145835714Y-96940476D01*
X145502380Y-97178571D02*
X146359523Y-97178571D01*
X146454761Y-97130952D01*
X146502380Y-97035714D01*
X146502380Y-96940476D01*
X145835714Y-96607142D02*
X146835714Y-96607142D01*
X145883333Y-96607142D02*
X145835714Y-96511904D01*
X145835714Y-96321428D01*
X145883333Y-96226190D01*
X145930952Y-96178571D01*
X146026190Y-96130952D01*
X146311904Y-96130952D01*
X146407142Y-96178571D01*
X146454761Y-96226190D01*
X146502380Y-96321428D01*
X146502380Y-96511904D01*
X146454761Y-96607142D01*
X145835714Y-95273809D02*
X146502380Y-95273809D01*
X145835714Y-95702380D02*
X146359523Y-95702380D01*
X146454761Y-95654761D01*
X146502380Y-95559523D01*
X146502380Y-95416666D01*
X146454761Y-95321428D01*
X146407142Y-95273809D01*
X145835714Y-94940476D02*
X145835714Y-94559523D01*
X145502380Y-94797619D02*
X146359523Y-94797619D01*
X146454761Y-94750000D01*
X146502380Y-94654761D01*
X146502380Y-94559523D01*
X146502380Y-93464285D02*
X145835714Y-93464285D01*
X146026190Y-93464285D02*
X145930952Y-93416666D01*
X145883333Y-93369047D01*
X145835714Y-93273809D01*
X145835714Y-93178571D01*
X146502380Y-92416666D02*
X145978571Y-92416666D01*
X145883333Y-92464285D01*
X145835714Y-92559523D01*
X145835714Y-92750000D01*
X145883333Y-92845238D01*
X146454761Y-92416666D02*
X146502380Y-92511904D01*
X146502380Y-92750000D01*
X146454761Y-92845238D01*
X146359523Y-92892857D01*
X146264285Y-92892857D01*
X146169047Y-92845238D01*
X146121428Y-92750000D01*
X146121428Y-92511904D01*
X146073809Y-92416666D01*
X145835714Y-92035714D02*
X146502380Y-91845238D01*
X146026190Y-91654761D01*
X146502380Y-91464285D01*
X145835714Y-91273809D01*
D10*
X152507142Y-117411428D02*
X152507142Y-116268571D01*
X151828571Y-106152142D02*
X152971428Y-106152142D01*
X152400000Y-106723571D02*
X152400000Y-105580714D01*
X151578571Y-114795714D02*
X151578571Y-114510000D01*
X151650000Y-114367142D01*
X151792857Y-114224285D01*
X152078571Y-114152857D01*
X152578571Y-114152857D01*
X152864285Y-114224285D01*
X153007142Y-114367142D01*
X153078571Y-114510000D01*
X153078571Y-114795714D01*
X153007142Y-114938571D01*
X152864285Y-115081428D01*
X152578571Y-115152857D01*
X152078571Y-115152857D01*
X151792857Y-115081428D01*
X151650000Y-114938571D01*
X151578571Y-114795714D01*
X152078571Y-112867142D02*
X153078571Y-112867142D01*
X152078571Y-113510000D02*
X152864285Y-113510000D01*
X153007142Y-113438571D01*
X153078571Y-113295714D01*
X153078571Y-113081428D01*
X153007142Y-112938571D01*
X152935714Y-112867142D01*
X152078571Y-112367142D02*
X152078571Y-111795714D01*
X151578571Y-112152857D02*
X152864285Y-112152857D01*
X153007142Y-112081428D01*
X153078571Y-111938571D01*
X153078571Y-111795714D01*
X152078571Y-111295714D02*
X153578571Y-111295714D01*
X152150000Y-111295714D02*
X152078571Y-111152857D01*
X152078571Y-110867142D01*
X152150000Y-110724285D01*
X152221428Y-110652857D01*
X152364285Y-110581428D01*
X152792857Y-110581428D01*
X152935714Y-110652857D01*
X153007142Y-110724285D01*
X153078571Y-110867142D01*
X153078571Y-111152857D01*
X153007142Y-111295714D01*
X152078571Y-109295714D02*
X153078571Y-109295714D01*
X152078571Y-109938571D02*
X152864285Y-109938571D01*
X153007142Y-109867142D01*
X153078571Y-109724285D01*
X153078571Y-109510000D01*
X153007142Y-109367142D01*
X152935714Y-109295714D01*
X152078571Y-108795714D02*
X152078571Y-108224285D01*
X151578571Y-108581428D02*
X152864285Y-108581428D01*
X153007142Y-108510000D01*
X153078571Y-108367142D01*
X153078571Y-108224285D01*
X104838571Y-143617142D02*
X105981428Y-143617142D01*
X87058571Y-143617142D02*
X88201428Y-143617142D01*
X114998571Y-143617142D02*
X116141428Y-143617142D01*
X115570000Y-144188571D02*
X115570000Y-143045714D01*
X97218571Y-143617142D02*
X98361428Y-143617142D01*
X97790000Y-144188571D02*
X97790000Y-143045714D01*
X96635714Y-146093571D02*
X96635714Y-144593571D01*
X97207142Y-144593571D01*
X97350000Y-144665000D01*
X97421428Y-144736428D01*
X97492857Y-144879285D01*
X97492857Y-145093571D01*
X97421428Y-145236428D01*
X97350000Y-145307857D01*
X97207142Y-145379285D01*
X96635714Y-145379285D01*
X98350000Y-146093571D02*
X98207142Y-146022142D01*
X98135714Y-145950714D01*
X98064285Y-145807857D01*
X98064285Y-145379285D01*
X98135714Y-145236428D01*
X98207142Y-145165000D01*
X98350000Y-145093571D01*
X98564285Y-145093571D01*
X98707142Y-145165000D01*
X98778571Y-145236428D01*
X98850000Y-145379285D01*
X98850000Y-145807857D01*
X98778571Y-145950714D01*
X98707142Y-146022142D01*
X98564285Y-146093571D01*
X98350000Y-146093571D01*
X99350000Y-145093571D02*
X99635714Y-146093571D01*
X99921428Y-145379285D01*
X100207142Y-146093571D01*
X100492857Y-145093571D01*
X101635714Y-146022142D02*
X101492857Y-146093571D01*
X101207142Y-146093571D01*
X101064285Y-146022142D01*
X100992857Y-145879285D01*
X100992857Y-145307857D01*
X101064285Y-145165000D01*
X101207142Y-145093571D01*
X101492857Y-145093571D01*
X101635714Y-145165000D01*
X101707142Y-145307857D01*
X101707142Y-145450714D01*
X100992857Y-145593571D01*
X102350000Y-146093571D02*
X102350000Y-145093571D01*
X102350000Y-145379285D02*
X102421428Y-145236428D01*
X102492857Y-145165000D01*
X102635714Y-145093571D01*
X102778571Y-145093571D01*
X104421428Y-146093571D02*
X104421428Y-144593571D01*
X104421428Y-145307857D02*
X105278571Y-145307857D01*
X105278571Y-146093571D02*
X105278571Y-144593571D01*
X105778571Y-144593571D02*
X106278571Y-146093571D01*
X106778571Y-144593571D01*
X67373571Y-129647142D02*
X68516428Y-129647142D01*
X67945000Y-130218571D02*
X67945000Y-129075714D01*
X68695000Y-123317142D02*
X68766428Y-123174285D01*
X68766428Y-122960000D01*
X68695000Y-122745714D01*
X68552142Y-122602857D01*
X68409285Y-122531428D01*
X68123571Y-122460000D01*
X67909285Y-122460000D01*
X67623571Y-122531428D01*
X67480714Y-122602857D01*
X67337857Y-122745714D01*
X67266428Y-122960000D01*
X67266428Y-123102857D01*
X67337857Y-123317142D01*
X67409285Y-123388571D01*
X67909285Y-123388571D01*
X67909285Y-123102857D01*
X67266428Y-124031428D02*
X68766428Y-124031428D01*
X67266428Y-124888571D01*
X68766428Y-124888571D01*
X67266428Y-125602857D02*
X68766428Y-125602857D01*
X68766428Y-125960000D01*
X68695000Y-126174285D01*
X68552142Y-126317142D01*
X68409285Y-126388571D01*
X68123571Y-126460000D01*
X67909285Y-126460000D01*
X67623571Y-126388571D01*
X67480714Y-126317142D01*
X67337857Y-126174285D01*
X67266428Y-125960000D01*
X67266428Y-125602857D01*
X64726428Y-113515000D02*
X66226428Y-113515000D01*
X66226428Y-114086428D01*
X66155000Y-114229285D01*
X66083571Y-114300714D01*
X65940714Y-114372142D01*
X65726428Y-114372142D01*
X65583571Y-114300714D01*
X65512142Y-114229285D01*
X65440714Y-114086428D01*
X65440714Y-113515000D01*
X64726428Y-115229285D02*
X64797857Y-115086428D01*
X64869285Y-115015000D01*
X65012142Y-114943571D01*
X65440714Y-114943571D01*
X65583571Y-115015000D01*
X65655000Y-115086428D01*
X65726428Y-115229285D01*
X65726428Y-115443571D01*
X65655000Y-115586428D01*
X65583571Y-115657857D01*
X65440714Y-115729285D01*
X65012142Y-115729285D01*
X64869285Y-115657857D01*
X64797857Y-115586428D01*
X64726428Y-115443571D01*
X64726428Y-115229285D01*
X65726428Y-116229285D02*
X64726428Y-116515000D01*
X65440714Y-116800714D01*
X64726428Y-117086428D01*
X65726428Y-117372142D01*
X64797857Y-118515000D02*
X64726428Y-118372142D01*
X64726428Y-118086428D01*
X64797857Y-117943571D01*
X64940714Y-117872142D01*
X65512142Y-117872142D01*
X65655000Y-117943571D01*
X65726428Y-118086428D01*
X65726428Y-118372142D01*
X65655000Y-118515000D01*
X65512142Y-118586428D01*
X65369285Y-118586428D01*
X65226428Y-117872142D01*
X64726428Y-119229285D02*
X65726428Y-119229285D01*
X65440714Y-119229285D02*
X65583571Y-119300714D01*
X65655000Y-119372142D01*
X65726428Y-119515000D01*
X65726428Y-119657857D01*
X64726428Y-122015000D02*
X64726428Y-121300714D01*
X66226428Y-121300714D01*
X64726428Y-122729285D02*
X64797857Y-122586428D01*
X64869285Y-122515000D01*
X65012142Y-122443571D01*
X65440714Y-122443571D01*
X65583571Y-122515000D01*
X65655000Y-122586428D01*
X65726428Y-122729285D01*
X65726428Y-122943571D01*
X65655000Y-123086428D01*
X65583571Y-123157857D01*
X65440714Y-123229285D01*
X65012142Y-123229285D01*
X64869285Y-123157857D01*
X64797857Y-123086428D01*
X64726428Y-122943571D01*
X64726428Y-122729285D01*
X65726428Y-124515000D02*
X64512142Y-124515000D01*
X64369285Y-124443571D01*
X64297857Y-124372142D01*
X64226428Y-124229285D01*
X64226428Y-124015000D01*
X64297857Y-123872142D01*
X64797857Y-124515000D02*
X64726428Y-124372142D01*
X64726428Y-124086428D01*
X64797857Y-123943571D01*
X64869285Y-123872142D01*
X65012142Y-123800714D01*
X65440714Y-123800714D01*
X65583571Y-123872142D01*
X65655000Y-123943571D01*
X65726428Y-124086428D01*
X65726428Y-124372142D01*
X65655000Y-124515000D01*
X64726428Y-125229285D02*
X65726428Y-125229285D01*
X66226428Y-125229285D02*
X66155000Y-125157857D01*
X66083571Y-125229285D01*
X66155000Y-125300714D01*
X66226428Y-125229285D01*
X66083571Y-125229285D01*
X64797857Y-126586428D02*
X64726428Y-126443571D01*
X64726428Y-126157857D01*
X64797857Y-126015000D01*
X64869285Y-125943571D01*
X65012142Y-125872142D01*
X65440714Y-125872142D01*
X65583571Y-125943571D01*
X65655000Y-126015000D01*
X65726428Y-126157857D01*
X65726428Y-126443571D01*
X65655000Y-126586428D01*
X67373571Y-116947142D02*
X68516428Y-116947142D01*
X67945000Y-117518571D02*
X67945000Y-116375714D01*
X68695000Y-110617142D02*
X68766428Y-110474285D01*
X68766428Y-110260000D01*
X68695000Y-110045714D01*
X68552142Y-109902857D01*
X68409285Y-109831428D01*
X68123571Y-109760000D01*
X67909285Y-109760000D01*
X67623571Y-109831428D01*
X67480714Y-109902857D01*
X67337857Y-110045714D01*
X67266428Y-110260000D01*
X67266428Y-110402857D01*
X67337857Y-110617142D01*
X67409285Y-110688571D01*
X67909285Y-110688571D01*
X67909285Y-110402857D01*
X67266428Y-111331428D02*
X68766428Y-111331428D01*
X67266428Y-112188571D01*
X68766428Y-112188571D01*
X67266428Y-112902857D02*
X68766428Y-112902857D01*
X68766428Y-113260000D01*
X68695000Y-113474285D01*
X68552142Y-113617142D01*
X68409285Y-113688571D01*
X68123571Y-113760000D01*
X67909285Y-113760000D01*
X67623571Y-113688571D01*
X67480714Y-113617142D01*
X67337857Y-113474285D01*
X67266428Y-113260000D01*
X67266428Y-112902857D01*
X67266428Y-102854285D02*
X67337857Y-102711428D01*
X67480714Y-102640000D01*
X68766428Y-102640000D01*
X67266428Y-103640000D02*
X67337857Y-103497142D01*
X67409285Y-103425714D01*
X67552142Y-103354285D01*
X67980714Y-103354285D01*
X68123571Y-103425714D01*
X68195000Y-103497142D01*
X68266428Y-103640000D01*
X68266428Y-103854285D01*
X68195000Y-103997142D01*
X68123571Y-104068571D01*
X67980714Y-104140000D01*
X67552142Y-104140000D01*
X67409285Y-104068571D01*
X67337857Y-103997142D01*
X67266428Y-103854285D01*
X67266428Y-103640000D01*
X68266428Y-104640000D02*
X67266428Y-104925714D01*
X67980714Y-105211428D01*
X67266428Y-105497142D01*
X68266428Y-105782857D01*
X67337857Y-97881428D02*
X67266428Y-98095714D01*
X67266428Y-98452857D01*
X67337857Y-98595714D01*
X67409285Y-98667142D01*
X67552142Y-98738571D01*
X67695000Y-98738571D01*
X67837857Y-98667142D01*
X67909285Y-98595714D01*
X67980714Y-98452857D01*
X68052142Y-98167142D01*
X68123571Y-98024285D01*
X68195000Y-97952857D01*
X68337857Y-97881428D01*
X68480714Y-97881428D01*
X68623571Y-97952857D01*
X68695000Y-98024285D01*
X68766428Y-98167142D01*
X68766428Y-98524285D01*
X68695000Y-98738571D01*
X67266428Y-99381428D02*
X68766428Y-99381428D01*
X68766428Y-99738571D01*
X68695000Y-99952857D01*
X68552142Y-100095714D01*
X68409285Y-100167142D01*
X68123571Y-100238571D01*
X67909285Y-100238571D01*
X67623571Y-100167142D01*
X67480714Y-100095714D01*
X67337857Y-99952857D01*
X67266428Y-99738571D01*
X67266428Y-99381428D01*
X67266428Y-91944285D02*
X68766428Y-91944285D01*
X67266428Y-92587142D02*
X68052142Y-92587142D01*
X68195000Y-92515714D01*
X68266428Y-92372857D01*
X68266428Y-92158571D01*
X68195000Y-92015714D01*
X68123571Y-91944285D01*
X67266428Y-93301428D02*
X68266428Y-93301428D01*
X68766428Y-93301428D02*
X68695000Y-93230000D01*
X68623571Y-93301428D01*
X68695000Y-93372857D01*
X68766428Y-93301428D01*
X68623571Y-93301428D01*
X68266428Y-94658571D02*
X67052142Y-94658571D01*
X66909285Y-94587142D01*
X66837857Y-94515714D01*
X66766428Y-94372857D01*
X66766428Y-94158571D01*
X66837857Y-94015714D01*
X67337857Y-94658571D02*
X67266428Y-94515714D01*
X67266428Y-94230000D01*
X67337857Y-94087142D01*
X67409285Y-94015714D01*
X67552142Y-93944285D01*
X67980714Y-93944285D01*
X68123571Y-94015714D01*
X68195000Y-94087142D01*
X68266428Y-94230000D01*
X68266428Y-94515714D01*
X68195000Y-94658571D01*
X67266428Y-95372857D02*
X68766428Y-95372857D01*
X67266428Y-96015714D02*
X68052142Y-96015714D01*
X68195000Y-95944285D01*
X68266428Y-95801428D01*
X68266428Y-95587142D01*
X68195000Y-95444285D01*
X68123571Y-95372857D01*
D13*
X92359775Y-106500000D02*
X92359775Y-106000000D01*
X92609775Y-106250000D02*
X92109775Y-106250000D01*
X87204000Y-105059000D02*
X87204000Y-104491000D01*
X87244000Y-105293000D02*
X87244000Y-104257000D01*
X87284000Y-105452000D02*
X87284000Y-104098000D01*
X87324000Y-105580000D02*
X87324000Y-103970000D01*
X87364000Y-105690000D02*
X87364000Y-103860000D01*
X87404000Y-105786000D02*
X87404000Y-103764000D01*
X87444000Y-105873000D02*
X87444000Y-103677000D01*
X87484000Y-105953000D02*
X87484000Y-103597000D01*
X87524000Y-106026000D02*
X87524000Y-103524000D01*
X87564000Y-106094000D02*
X87564000Y-103456000D01*
X87604000Y-106158000D02*
X87604000Y-103392000D01*
X87644000Y-106218000D02*
X87644000Y-103332000D01*
X87684000Y-106275000D02*
X87684000Y-103275000D01*
X87724000Y-106329000D02*
X87724000Y-103221000D01*
X87764000Y-106380000D02*
X87764000Y-103170000D01*
X87804000Y-103735000D02*
X87804000Y-103122000D01*
X87804000Y-106428000D02*
X87804000Y-105815000D01*
X87844000Y-103735000D02*
X87844000Y-103076000D01*
X87844000Y-106474000D02*
X87844000Y-105815000D01*
X87884000Y-103735000D02*
X87884000Y-103032000D01*
X87884000Y-106518000D02*
X87884000Y-105815000D01*
X87924000Y-103735000D02*
X87924000Y-102990000D01*
X87924000Y-106560000D02*
X87924000Y-105815000D01*
X87964000Y-103735000D02*
X87964000Y-102949000D01*
X87964000Y-106601000D02*
X87964000Y-105815000D01*
X88004000Y-103735000D02*
X88004000Y-102911000D01*
X88004000Y-106639000D02*
X88004000Y-105815000D01*
X88044000Y-103735000D02*
X88044000Y-102874000D01*
X88044000Y-106676000D02*
X88044000Y-105815000D01*
X88084000Y-103735000D02*
X88084000Y-102838000D01*
X88084000Y-106712000D02*
X88084000Y-105815000D01*
X88124000Y-103735000D02*
X88124000Y-102804000D01*
X88124000Y-106746000D02*
X88124000Y-105815000D01*
X88164000Y-103735000D02*
X88164000Y-102771000D01*
X88164000Y-106779000D02*
X88164000Y-105815000D01*
X88204000Y-103735000D02*
X88204000Y-102740000D01*
X88204000Y-106810000D02*
X88204000Y-105815000D01*
X88244000Y-103735000D02*
X88244000Y-102710000D01*
X88244000Y-106840000D02*
X88244000Y-105815000D01*
X88284000Y-103735000D02*
X88284000Y-102680000D01*
X88284000Y-106870000D02*
X88284000Y-105815000D01*
X88324000Y-103735000D02*
X88324000Y-102653000D01*
X88324000Y-106897000D02*
X88324000Y-105815000D01*
X88364000Y-103735000D02*
X88364000Y-102626000D01*
X88364000Y-106924000D02*
X88364000Y-105815000D01*
X88404000Y-103735000D02*
X88404000Y-102600000D01*
X88404000Y-106950000D02*
X88404000Y-105815000D01*
X88444000Y-103735000D02*
X88444000Y-102575000D01*
X88444000Y-106975000D02*
X88444000Y-105815000D01*
X88484000Y-103735000D02*
X88484000Y-102551000D01*
X88484000Y-106999000D02*
X88484000Y-105815000D01*
X88524000Y-103735000D02*
X88524000Y-102528000D01*
X88524000Y-107022000D02*
X88524000Y-105815000D01*
X88564000Y-103735000D02*
X88564000Y-102507000D01*
X88564000Y-107043000D02*
X88564000Y-105815000D01*
X88604000Y-103735000D02*
X88604000Y-102485000D01*
X88604000Y-107065000D02*
X88604000Y-105815000D01*
X88644000Y-103735000D02*
X88644000Y-102465000D01*
X88644000Y-107085000D02*
X88644000Y-105815000D01*
X88684000Y-103735000D02*
X88684000Y-102446000D01*
X88684000Y-107104000D02*
X88684000Y-105815000D01*
X88724000Y-103735000D02*
X88724000Y-102427000D01*
X88724000Y-107123000D02*
X88724000Y-105815000D01*
X88764000Y-103735000D02*
X88764000Y-102410000D01*
X88764000Y-107140000D02*
X88764000Y-105815000D01*
X88804000Y-103735000D02*
X88804000Y-102393000D01*
X88804000Y-107157000D02*
X88804000Y-105815000D01*
X88844000Y-103735000D02*
X88844000Y-102377000D01*
X88844000Y-107173000D02*
X88844000Y-105815000D01*
X88884000Y-103735000D02*
X88884000Y-102361000D01*
X88884000Y-107189000D02*
X88884000Y-105815000D01*
X88924000Y-103735000D02*
X88924000Y-102347000D01*
X88924000Y-107203000D02*
X88924000Y-105815000D01*
X88964000Y-103735000D02*
X88964000Y-102333000D01*
X88964000Y-107217000D02*
X88964000Y-105815000D01*
X89004000Y-103735000D02*
X89004000Y-102320000D01*
X89004000Y-107230000D02*
X89004000Y-105815000D01*
X89044000Y-103735000D02*
X89044000Y-102307000D01*
X89044000Y-107243000D02*
X89044000Y-105815000D01*
X89084000Y-103735000D02*
X89084000Y-102295000D01*
X89084000Y-107255000D02*
X89084000Y-105815000D01*
X89125000Y-103735000D02*
X89125000Y-102284000D01*
X89125000Y-107266000D02*
X89125000Y-105815000D01*
X89165000Y-103735000D02*
X89165000Y-102274000D01*
X89165000Y-107276000D02*
X89165000Y-105815000D01*
X89205000Y-103735000D02*
X89205000Y-102264000D01*
X89205000Y-107286000D02*
X89205000Y-105815000D01*
X89245000Y-103735000D02*
X89245000Y-102255000D01*
X89245000Y-107295000D02*
X89245000Y-105815000D01*
X89285000Y-103735000D02*
X89285000Y-102247000D01*
X89285000Y-107303000D02*
X89285000Y-105815000D01*
X89325000Y-103735000D02*
X89325000Y-102239000D01*
X89325000Y-107311000D02*
X89325000Y-105815000D01*
X89365000Y-103735000D02*
X89365000Y-102232000D01*
X89365000Y-107318000D02*
X89365000Y-105815000D01*
X89405000Y-103735000D02*
X89405000Y-102225000D01*
X89405000Y-107325000D02*
X89405000Y-105815000D01*
X89445000Y-103735000D02*
X89445000Y-102219000D01*
X89445000Y-107331000D02*
X89445000Y-105815000D01*
X89485000Y-103735000D02*
X89485000Y-102214000D01*
X89485000Y-107336000D02*
X89485000Y-105815000D01*
X89525000Y-103735000D02*
X89525000Y-102210000D01*
X89525000Y-107340000D02*
X89525000Y-105815000D01*
X89565000Y-103735000D02*
X89565000Y-102206000D01*
X89565000Y-107344000D02*
X89565000Y-105815000D01*
X89605000Y-103735000D02*
X89605000Y-102202000D01*
X89605000Y-107348000D02*
X89605000Y-105815000D01*
X89645000Y-103735000D02*
X89645000Y-102199000D01*
X89645000Y-107351000D02*
X89645000Y-105815000D01*
X89685000Y-103735000D02*
X89685000Y-102197000D01*
X89685000Y-107353000D02*
X89685000Y-105815000D01*
X89725000Y-103735000D02*
X89725000Y-102196000D01*
X89725000Y-107354000D02*
X89725000Y-105815000D01*
X89765000Y-107355000D02*
X89765000Y-105815000D01*
X89765000Y-103735000D02*
X89765000Y-102195000D01*
X89805000Y-107355000D02*
X89805000Y-105815000D01*
X89805000Y-103735000D02*
X89805000Y-102195000D01*
X92425000Y-104775000D02*
G75*
G03X92425000Y-104775000I-2620000J0D01*
G01*
X126911000Y-131715000D02*
X121640000Y-131715000D01*
X126911000Y-128106000D02*
X121640000Y-128106000D01*
X126911000Y-137980000D02*
X121640000Y-137980000D01*
X126911000Y-121840000D02*
X121640000Y-121840000D01*
X121640000Y-121840000D02*
X121640000Y-137980000D01*
X126911000Y-121840000D02*
X126911000Y-137980000D01*
X126911000Y-107585000D02*
X121640000Y-107585000D01*
X126911000Y-103976000D02*
X121640000Y-103976000D01*
X126911000Y-113850000D02*
X121640000Y-113850000D01*
X126911000Y-97710000D02*
X121640000Y-97710000D01*
X121640000Y-97710000D02*
X121640000Y-113850000D01*
X126911000Y-97710000D02*
X126911000Y-113850000D01*
D14*
X95795000Y-119445000D02*
X93920000Y-119445000D01*
X93570000Y-109150000D02*
X93570000Y-119450000D01*
X86770000Y-109150000D02*
X93570000Y-109150000D01*
X86770000Y-119450000D02*
X86770000Y-109150000D01*
X93570000Y-119450000D02*
X86770000Y-119450000D01*
D13*
X138670000Y-93670000D02*
X140000000Y-93670000D01*
X138670000Y-95000000D02*
X138670000Y-93670000D01*
X138670000Y-96270000D02*
X141330000Y-96270000D01*
X141330000Y-96270000D02*
X141330000Y-96330000D01*
X138670000Y-96270000D02*
X138670000Y-96330000D01*
X138670000Y-96330000D02*
X141330000Y-96330000D01*
X150445000Y-119930000D02*
X150445000Y-104030000D01*
X145395000Y-119930000D02*
X150445000Y-119930000D01*
X145645000Y-119430000D02*
X145395000Y-119930000D01*
X140245000Y-119430000D02*
X145645000Y-119430000D01*
X140495000Y-119930000D02*
X140245000Y-119430000D01*
X138495000Y-119930000D02*
X140495000Y-119930000D01*
X138795000Y-119430000D02*
X138495000Y-119930000D01*
X137845000Y-119430000D02*
X138795000Y-119430000D01*
X137845000Y-104030000D02*
X137845000Y-119430000D01*
X150445000Y-104030000D02*
X137845000Y-104030000D01*
X69900000Y-121340000D02*
X69900000Y-132190000D01*
X75000000Y-121340000D02*
X69900000Y-121340000D01*
X74700000Y-121840000D02*
X75000000Y-121340000D01*
X80100000Y-121840000D02*
X74700000Y-121840000D01*
X79850000Y-121340000D02*
X80100000Y-121840000D01*
X79900000Y-121340000D02*
X79850000Y-121340000D01*
X81800000Y-121340000D02*
X79900000Y-121340000D01*
X81550000Y-121840000D02*
X81800000Y-121340000D01*
X82500000Y-121840000D02*
X81550000Y-121840000D01*
X82500000Y-132190000D02*
X82500000Y-121840000D01*
X69900000Y-132190000D02*
X82500000Y-132190000D01*
X69900000Y-108640000D02*
X69900000Y-119490000D01*
X75000000Y-108640000D02*
X69900000Y-108640000D01*
X74700000Y-109140000D02*
X75000000Y-108640000D01*
X80100000Y-109140000D02*
X74700000Y-109140000D01*
X79850000Y-108640000D02*
X80100000Y-109140000D01*
X79900000Y-108640000D02*
X79850000Y-108640000D01*
X81800000Y-108640000D02*
X79900000Y-108640000D01*
X81550000Y-109140000D02*
X81800000Y-108640000D01*
X82500000Y-109140000D02*
X81550000Y-109140000D01*
X82500000Y-119490000D02*
X82500000Y-109140000D01*
X69900000Y-119490000D02*
X82500000Y-119490000D01*
X84540000Y-142190000D02*
X100440000Y-142190000D01*
X84540000Y-137140000D02*
X84540000Y-142190000D01*
X85040000Y-137390000D02*
X84540000Y-137140000D01*
X85040000Y-131990000D02*
X85040000Y-137390000D01*
X84540000Y-132240000D02*
X85040000Y-131990000D01*
X84540000Y-130240000D02*
X84540000Y-132240000D01*
X85040000Y-130540000D02*
X84540000Y-130240000D01*
X85040000Y-129590000D02*
X85040000Y-130540000D01*
X100440000Y-129590000D02*
X85040000Y-129590000D01*
X100440000Y-142190000D02*
X100440000Y-129590000D01*
X110435000Y-82600000D02*
X99585000Y-82600000D01*
X110435000Y-87700000D02*
X110435000Y-82600000D01*
X109935000Y-87400000D02*
X110435000Y-87700000D01*
X109935000Y-92800000D02*
X109935000Y-87400000D01*
X110435000Y-92550000D02*
X109935000Y-92800000D01*
X110435000Y-92600000D02*
X110435000Y-92550000D01*
X110435000Y-94500000D02*
X110435000Y-92600000D01*
X109935000Y-94250000D02*
X110435000Y-94500000D01*
X109935000Y-95200000D02*
X109935000Y-94250000D01*
X99585000Y-95200000D02*
X109935000Y-95200000D01*
X99585000Y-82600000D02*
X99585000Y-95200000D01*
X102320000Y-142190000D02*
X118220000Y-142190000D01*
X102320000Y-137140000D02*
X102320000Y-142190000D01*
X102820000Y-137390000D02*
X102320000Y-137140000D01*
X102820000Y-131990000D02*
X102820000Y-137390000D01*
X102320000Y-132240000D02*
X102820000Y-131990000D01*
X102320000Y-130240000D02*
X102320000Y-132240000D01*
X102820000Y-130540000D02*
X102320000Y-130240000D01*
X102820000Y-129590000D02*
X102820000Y-130540000D01*
X118220000Y-129590000D02*
X102820000Y-129590000D01*
X118220000Y-142190000D02*
X118220000Y-129590000D01*
X97735000Y-82600000D02*
X86885000Y-82600000D01*
X97735000Y-87700000D02*
X97735000Y-82600000D01*
X97235000Y-87400000D02*
X97735000Y-87700000D01*
X97235000Y-92800000D02*
X97235000Y-87400000D01*
X97735000Y-92550000D02*
X97235000Y-92800000D01*
X97735000Y-92600000D02*
X97735000Y-92550000D01*
X97735000Y-94500000D02*
X97735000Y-92600000D01*
X97235000Y-94250000D02*
X97735000Y-94500000D01*
X97235000Y-95200000D02*
X97235000Y-94250000D01*
X86885000Y-95200000D02*
X97235000Y-95200000D01*
X86885000Y-82600000D02*
X86885000Y-95200000D01*
X69900000Y-90890000D02*
X69900000Y-106790000D01*
X74950000Y-90890000D02*
X69900000Y-90890000D01*
X74700000Y-91390000D02*
X74950000Y-90890000D01*
X80100000Y-91390000D02*
X74700000Y-91390000D01*
X79850000Y-90890000D02*
X80100000Y-91390000D01*
X81850000Y-90890000D02*
X79850000Y-90890000D01*
X81550000Y-91390000D02*
X81850000Y-90890000D01*
X82500000Y-91390000D02*
X81550000Y-91390000D01*
X82500000Y-106790000D02*
X82500000Y-91390000D01*
X69900000Y-106790000D02*
X82500000Y-106790000D01*
X101510000Y-107347936D02*
X101510000Y-108552064D01*
X104230000Y-107347936D02*
X104230000Y-108552064D01*
X109310000Y-108552064D02*
X109310000Y-107347936D01*
X106590000Y-108552064D02*
X106590000Y-107347936D01*
X111670000Y-107347936D02*
X111670000Y-108552064D01*
X114390000Y-107347936D02*
X114390000Y-108552064D01*
X134752064Y-98970000D02*
X131947936Y-98970000D01*
X134752064Y-101690000D02*
X131947936Y-101690000D01*
X132094000Y-119380000D02*
X130730000Y-119380000D01*
X135970000Y-119380000D02*
X134606000Y-119380000D01*
X132094000Y-111640000D02*
X130730000Y-111640000D01*
X135970000Y-111640000D02*
X134606000Y-111640000D01*
X130730000Y-111640000D02*
X130730000Y-119380000D01*
X135970000Y-111640000D02*
X135970000Y-119380000D01*
X100500000Y-124460000D02*
X101610000Y-124460000D01*
X112860000Y-124460000D02*
X111750000Y-124460000D01*
X101610000Y-126380000D02*
X111750000Y-126380000D01*
X101610000Y-122540000D02*
X101610000Y-126380000D01*
X111750000Y-122540000D02*
X101610000Y-122540000D01*
X111750000Y-126380000D02*
X111750000Y-122540000D01*
X101770000Y-101600000D02*
X102880000Y-101600000D01*
X114130000Y-101600000D02*
X113020000Y-101600000D01*
X102880000Y-103520000D02*
X113020000Y-103520000D01*
X102880000Y-99680000D02*
X102880000Y-103520000D01*
X113020000Y-99680000D02*
X102880000Y-99680000D01*
X113020000Y-103520000D02*
X113020000Y-99680000D01*
X107160000Y-112785000D02*
X114460000Y-112785000D01*
X107160000Y-117085000D02*
X114460000Y-117085000D01*
X107160000Y-112785000D02*
X107160000Y-117085000D01*
X100040000Y-117922288D02*
X100490000Y-117922288D01*
X100265000Y-118147288D02*
X100265000Y-117697288D01*
X102660000Y-113490260D02*
G75*
G02X102660000Y-117729741I-1060000J-2119740D01*
G01*
X100540000Y-113490260D02*
G75*
G03X100540000Y-117729741I1060000J-2119740D01*
G01*
D12*
X89638333Y-108882142D02*
X89590714Y-108929761D01*
X89447857Y-108977380D01*
X89352619Y-108977380D01*
X89209761Y-108929761D01*
X89114523Y-108834523D01*
X89066904Y-108739285D01*
X89019285Y-108548809D01*
X89019285Y-108405952D01*
X89066904Y-108215476D01*
X89114523Y-108120238D01*
X89209761Y-108025000D01*
X89352619Y-107977380D01*
X89447857Y-107977380D01*
X89590714Y-108025000D01*
X89638333Y-108072619D01*
X90019285Y-108072619D02*
X90066904Y-108025000D01*
X90162142Y-107977380D01*
X90400238Y-107977380D01*
X90495476Y-108025000D01*
X90543095Y-108072619D01*
X90590714Y-108167857D01*
X90590714Y-108263095D01*
X90543095Y-108405952D01*
X89971666Y-108977380D01*
X90590714Y-108977380D01*
X128457619Y-130005238D02*
X128410000Y-130100476D01*
X128314761Y-130195714D01*
X128171904Y-130338571D01*
X128124285Y-130433809D01*
X128124285Y-130529047D01*
X128362380Y-130481428D02*
X128314761Y-130576666D01*
X128219523Y-130671904D01*
X128029047Y-130719523D01*
X127695714Y-130719523D01*
X127505238Y-130671904D01*
X127410000Y-130576666D01*
X127362380Y-130481428D01*
X127362380Y-130290952D01*
X127410000Y-130195714D01*
X127505238Y-130100476D01*
X127695714Y-130052857D01*
X128029047Y-130052857D01*
X128219523Y-130100476D01*
X128314761Y-130195714D01*
X128362380Y-130290952D01*
X128362380Y-130481428D01*
X127457619Y-129671904D02*
X127410000Y-129624285D01*
X127362380Y-129529047D01*
X127362380Y-129290952D01*
X127410000Y-129195714D01*
X127457619Y-129148095D01*
X127552857Y-129100476D01*
X127648095Y-129100476D01*
X127790952Y-129148095D01*
X128362380Y-129719523D01*
X128362380Y-129100476D01*
X128457619Y-105875238D02*
X128410000Y-105970476D01*
X128314761Y-106065714D01*
X128171904Y-106208571D01*
X128124285Y-106303809D01*
X128124285Y-106399047D01*
X128362380Y-106351428D02*
X128314761Y-106446666D01*
X128219523Y-106541904D01*
X128029047Y-106589523D01*
X127695714Y-106589523D01*
X127505238Y-106541904D01*
X127410000Y-106446666D01*
X127362380Y-106351428D01*
X127362380Y-106160952D01*
X127410000Y-106065714D01*
X127505238Y-105970476D01*
X127695714Y-105922857D01*
X128029047Y-105922857D01*
X128219523Y-105970476D01*
X128314761Y-106065714D01*
X128362380Y-106160952D01*
X128362380Y-106351428D01*
X128362380Y-104970476D02*
X128362380Y-105541904D01*
X128362380Y-105256190D02*
X127362380Y-105256190D01*
X127505238Y-105351428D01*
X127600476Y-105446666D01*
X127648095Y-105541904D01*
D15*
X88930238Y-114874523D02*
X88930238Y-113604523D01*
X90260714Y-114753571D02*
X90200238Y-114814047D01*
X90018809Y-114874523D01*
X89897857Y-114874523D01*
X89716428Y-114814047D01*
X89595476Y-114693095D01*
X89535000Y-114572142D01*
X89474523Y-114330238D01*
X89474523Y-114148809D01*
X89535000Y-113906904D01*
X89595476Y-113785952D01*
X89716428Y-113665000D01*
X89897857Y-113604523D01*
X90018809Y-113604523D01*
X90200238Y-113665000D01*
X90260714Y-113725476D01*
X91470238Y-114874523D02*
X90744523Y-114874523D01*
X91107380Y-114874523D02*
X91107380Y-113604523D01*
X90986428Y-113785952D01*
X90865476Y-113906904D01*
X90744523Y-113967380D01*
D12*
X139666666Y-92122380D02*
X139666666Y-92836666D01*
X139619047Y-92979523D01*
X139523809Y-93074761D01*
X139380952Y-93122380D01*
X139285714Y-93122380D01*
X140190476Y-93122380D02*
X140380952Y-93122380D01*
X140476190Y-93074761D01*
X140523809Y-93027142D01*
X140619047Y-92884285D01*
X140666666Y-92693809D01*
X140666666Y-92312857D01*
X140619047Y-92217619D01*
X140571428Y-92170000D01*
X140476190Y-92122380D01*
X140285714Y-92122380D01*
X140190476Y-92170000D01*
X140142857Y-92217619D01*
X140095238Y-92312857D01*
X140095238Y-92550952D01*
X140142857Y-92646190D01*
X140190476Y-92693809D01*
X140285714Y-92741428D01*
X140476190Y-92741428D01*
X140571428Y-92693809D01*
X140619047Y-92646190D01*
X140666666Y-92550952D01*
X148042380Y-112093333D02*
X148756666Y-112093333D01*
X148899523Y-112140952D01*
X148994761Y-112236190D01*
X149042380Y-112379047D01*
X149042380Y-112474285D01*
X148470952Y-111474285D02*
X148423333Y-111569523D01*
X148375714Y-111617142D01*
X148280476Y-111664761D01*
X148232857Y-111664761D01*
X148137619Y-111617142D01*
X148090000Y-111569523D01*
X148042380Y-111474285D01*
X148042380Y-111283809D01*
X148090000Y-111188571D01*
X148137619Y-111140952D01*
X148232857Y-111093333D01*
X148280476Y-111093333D01*
X148375714Y-111140952D01*
X148423333Y-111188571D01*
X148470952Y-111283809D01*
X148470952Y-111474285D01*
X148518571Y-111569523D01*
X148566190Y-111617142D01*
X148661428Y-111664761D01*
X148851904Y-111664761D01*
X148947142Y-111617142D01*
X148994761Y-111569523D01*
X149042380Y-111474285D01*
X149042380Y-111283809D01*
X148994761Y-111188571D01*
X148947142Y-111140952D01*
X148851904Y-111093333D01*
X148661428Y-111093333D01*
X148566190Y-111140952D01*
X148518571Y-111188571D01*
X148470952Y-111283809D01*
X73747380Y-127333333D02*
X74461666Y-127333333D01*
X74604523Y-127380952D01*
X74699761Y-127476190D01*
X74747380Y-127619047D01*
X74747380Y-127714285D01*
X73747380Y-126952380D02*
X73747380Y-126285714D01*
X74747380Y-126714285D01*
X73747380Y-114633333D02*
X74461666Y-114633333D01*
X74604523Y-114680952D01*
X74699761Y-114776190D01*
X74747380Y-114919047D01*
X74747380Y-115014285D01*
X73747380Y-113728571D02*
X73747380Y-113919047D01*
X73795000Y-114014285D01*
X73842619Y-114061904D01*
X73985476Y-114157142D01*
X74175952Y-114204761D01*
X74556904Y-114204761D01*
X74652142Y-114157142D01*
X74699761Y-114109523D01*
X74747380Y-114014285D01*
X74747380Y-113823809D01*
X74699761Y-113728571D01*
X74652142Y-113680952D01*
X74556904Y-113633333D01*
X74318809Y-113633333D01*
X74223571Y-113680952D01*
X74175952Y-113728571D01*
X74128333Y-113823809D01*
X74128333Y-114014285D01*
X74175952Y-114109523D01*
X74223571Y-114157142D01*
X74318809Y-114204761D01*
X92456666Y-139152380D02*
X92456666Y-139866666D01*
X92409047Y-140009523D01*
X92313809Y-140104761D01*
X92170952Y-140152380D01*
X92075714Y-140152380D01*
X93409047Y-139152380D02*
X92932857Y-139152380D01*
X92885238Y-139628571D01*
X92932857Y-139580952D01*
X93028095Y-139533333D01*
X93266190Y-139533333D01*
X93361428Y-139580952D01*
X93409047Y-139628571D01*
X93456666Y-139723809D01*
X93456666Y-139961904D01*
X93409047Y-140057142D01*
X93361428Y-140104761D01*
X93266190Y-140152380D01*
X93028095Y-140152380D01*
X92932857Y-140104761D01*
X92885238Y-140057142D01*
X104441666Y-86447380D02*
X104441666Y-87161666D01*
X104394047Y-87304523D01*
X104298809Y-87399761D01*
X104155952Y-87447380D01*
X104060714Y-87447380D01*
X105346428Y-86780714D02*
X105346428Y-87447380D01*
X105108333Y-86399761D02*
X104870238Y-87114047D01*
X105489285Y-87114047D01*
X110156666Y-139152380D02*
X110156666Y-139866666D01*
X110109047Y-140009523D01*
X110013809Y-140104761D01*
X109870952Y-140152380D01*
X109775714Y-140152380D01*
X110537619Y-139152380D02*
X111156666Y-139152380D01*
X110823333Y-139533333D01*
X110966190Y-139533333D01*
X111061428Y-139580952D01*
X111109047Y-139628571D01*
X111156666Y-139723809D01*
X111156666Y-139961904D01*
X111109047Y-140057142D01*
X111061428Y-140104761D01*
X110966190Y-140152380D01*
X110680476Y-140152380D01*
X110585238Y-140104761D01*
X110537619Y-140057142D01*
X91741666Y-86447380D02*
X91741666Y-87161666D01*
X91694047Y-87304523D01*
X91598809Y-87399761D01*
X91455952Y-87447380D01*
X91360714Y-87447380D01*
X92170238Y-86542619D02*
X92217857Y-86495000D01*
X92313095Y-86447380D01*
X92551190Y-86447380D01*
X92646428Y-86495000D01*
X92694047Y-86542619D01*
X92741666Y-86637857D01*
X92741666Y-86733095D01*
X92694047Y-86875952D01*
X92122619Y-87447380D01*
X92741666Y-87447380D01*
X73747380Y-101933333D02*
X74461666Y-101933333D01*
X74604523Y-101980952D01*
X74699761Y-102076190D01*
X74747380Y-102219047D01*
X74747380Y-102314285D01*
X74747380Y-100933333D02*
X74747380Y-101504761D01*
X74747380Y-101219047D02*
X73747380Y-101219047D01*
X73890238Y-101314285D01*
X73985476Y-101409523D01*
X74033095Y-101504761D01*
X100782380Y-108116666D02*
X100306190Y-108450000D01*
X100782380Y-108688095D02*
X99782380Y-108688095D01*
X99782380Y-108307142D01*
X99830000Y-108211904D01*
X99877619Y-108164285D01*
X99972857Y-108116666D01*
X100115714Y-108116666D01*
X100210952Y-108164285D01*
X100258571Y-108211904D01*
X100306190Y-108307142D01*
X100306190Y-108688095D01*
X99782380Y-107211904D02*
X99782380Y-107688095D01*
X100258571Y-107735714D01*
X100210952Y-107688095D01*
X100163333Y-107592857D01*
X100163333Y-107354761D01*
X100210952Y-107259523D01*
X100258571Y-107211904D01*
X100353809Y-107164285D01*
X100591904Y-107164285D01*
X100687142Y-107211904D01*
X100734761Y-107259523D01*
X100782380Y-107354761D01*
X100782380Y-107592857D01*
X100734761Y-107688095D01*
X100687142Y-107735714D01*
X106122380Y-108116666D02*
X105646190Y-108450000D01*
X106122380Y-108688095D02*
X105122380Y-108688095D01*
X105122380Y-108307142D01*
X105170000Y-108211904D01*
X105217619Y-108164285D01*
X105312857Y-108116666D01*
X105455714Y-108116666D01*
X105550952Y-108164285D01*
X105598571Y-108211904D01*
X105646190Y-108307142D01*
X105646190Y-108688095D01*
X105455714Y-107259523D02*
X106122380Y-107259523D01*
X105074761Y-107497619D02*
X105789047Y-107735714D01*
X105789047Y-107116666D01*
X116022380Y-108116666D02*
X115546190Y-108450000D01*
X116022380Y-108688095D02*
X115022380Y-108688095D01*
X115022380Y-108307142D01*
X115070000Y-108211904D01*
X115117619Y-108164285D01*
X115212857Y-108116666D01*
X115355714Y-108116666D01*
X115450952Y-108164285D01*
X115498571Y-108211904D01*
X115546190Y-108307142D01*
X115546190Y-108688095D01*
X115022380Y-107783333D02*
X115022380Y-107164285D01*
X115403333Y-107497619D01*
X115403333Y-107354761D01*
X115450952Y-107259523D01*
X115498571Y-107211904D01*
X115593809Y-107164285D01*
X115831904Y-107164285D01*
X115927142Y-107211904D01*
X115974761Y-107259523D01*
X116022380Y-107354761D01*
X116022380Y-107640476D01*
X115974761Y-107735714D01*
X115927142Y-107783333D01*
X132707142Y-103062380D02*
X132373809Y-102586190D01*
X132135714Y-103062380D02*
X132135714Y-102062380D01*
X132516666Y-102062380D01*
X132611904Y-102110000D01*
X132659523Y-102157619D01*
X132707142Y-102252857D01*
X132707142Y-102395714D01*
X132659523Y-102490952D01*
X132611904Y-102538571D01*
X132516666Y-102586190D01*
X132135714Y-102586190D01*
X133659523Y-103062380D02*
X133088095Y-103062380D01*
X133373809Y-103062380D02*
X133373809Y-102062380D01*
X133278571Y-102205238D01*
X133183333Y-102300476D01*
X133088095Y-102348095D01*
X134278571Y-102062380D02*
X134373809Y-102062380D01*
X134469047Y-102110000D01*
X134516666Y-102157619D01*
X134564285Y-102252857D01*
X134611904Y-102443333D01*
X134611904Y-102681428D01*
X134564285Y-102871904D01*
X134516666Y-102967142D01*
X134469047Y-103014761D01*
X134373809Y-103062380D01*
X134278571Y-103062380D01*
X134183333Y-103014761D01*
X134135714Y-102967142D01*
X134088095Y-102871904D01*
X134040476Y-102681428D01*
X134040476Y-102443333D01*
X134088095Y-102252857D01*
X134135714Y-102157619D01*
X134183333Y-102110000D01*
X134278571Y-102062380D01*
X132437142Y-115736666D02*
X132484761Y-115784285D01*
X132532380Y-115927142D01*
X132532380Y-116022380D01*
X132484761Y-116165238D01*
X132389523Y-116260476D01*
X132294285Y-116308095D01*
X132103809Y-116355714D01*
X131960952Y-116355714D01*
X131770476Y-116308095D01*
X131675238Y-116260476D01*
X131580000Y-116165238D01*
X131532380Y-116022380D01*
X131532380Y-115927142D01*
X131580000Y-115784285D01*
X131627619Y-115736666D01*
X131532380Y-115403333D02*
X131532380Y-114784285D01*
X131913333Y-115117619D01*
X131913333Y-114974761D01*
X131960952Y-114879523D01*
X132008571Y-114831904D01*
X132103809Y-114784285D01*
X132341904Y-114784285D01*
X132437142Y-114831904D01*
X132484761Y-114879523D01*
X132532380Y-114974761D01*
X132532380Y-115260476D01*
X132484761Y-115355714D01*
X132437142Y-115403333D01*
X106513333Y-124912380D02*
X106180000Y-124436190D01*
X105941904Y-124912380D02*
X105941904Y-123912380D01*
X106322857Y-123912380D01*
X106418095Y-123960000D01*
X106465714Y-124007619D01*
X106513333Y-124102857D01*
X106513333Y-124245714D01*
X106465714Y-124340952D01*
X106418095Y-124388571D01*
X106322857Y-124436190D01*
X105941904Y-124436190D01*
X106894285Y-124007619D02*
X106941904Y-123960000D01*
X107037142Y-123912380D01*
X107275238Y-123912380D01*
X107370476Y-123960000D01*
X107418095Y-124007619D01*
X107465714Y-124102857D01*
X107465714Y-124198095D01*
X107418095Y-124340952D01*
X106846666Y-124912380D01*
X107465714Y-124912380D01*
X106513333Y-101417380D02*
X106180000Y-100941190D01*
X105941904Y-101417380D02*
X105941904Y-100417380D01*
X106322857Y-100417380D01*
X106418095Y-100465000D01*
X106465714Y-100512619D01*
X106513333Y-100607857D01*
X106513333Y-100750714D01*
X106465714Y-100845952D01*
X106418095Y-100893571D01*
X106322857Y-100941190D01*
X105941904Y-100941190D01*
X107465714Y-101417380D02*
X106894285Y-101417380D01*
X107180000Y-101417380D02*
X107180000Y-100417380D01*
X107084761Y-100560238D01*
X106989523Y-100655476D01*
X106894285Y-100703095D01*
X111021904Y-112387380D02*
X111021904Y-111387380D01*
X111260000Y-111387380D01*
X111402857Y-111435000D01*
X111498095Y-111530238D01*
X111545714Y-111625476D01*
X111593333Y-111815952D01*
X111593333Y-111958809D01*
X111545714Y-112149285D01*
X111498095Y-112244523D01*
X111402857Y-112339761D01*
X111260000Y-112387380D01*
X111021904Y-112387380D01*
X112545714Y-112387380D02*
X111974285Y-112387380D01*
X112260000Y-112387380D02*
X112260000Y-111387380D01*
X112164761Y-111530238D01*
X112069523Y-111625476D01*
X111974285Y-111673095D01*
X101322142Y-115776666D02*
X101369761Y-115824285D01*
X101417380Y-115967142D01*
X101417380Y-116062380D01*
X101369761Y-116205238D01*
X101274523Y-116300476D01*
X101179285Y-116348095D01*
X100988809Y-116395714D01*
X100845952Y-116395714D01*
X100655476Y-116348095D01*
X100560238Y-116300476D01*
X100465000Y-116205238D01*
X100417380Y-116062380D01*
X100417380Y-115967142D01*
X100465000Y-115824285D01*
X100512619Y-115776666D01*
X101417380Y-114824285D02*
X101417380Y-115395714D01*
X101417380Y-115110000D02*
X100417380Y-115110000D01*
X100560238Y-115205238D01*
X100655476Y-115300476D01*
X100703095Y-115395714D01*
M02*
