G04 #@! TF.GenerationSoftware,KiCad,Pcbnew,(5.1.5)-3*
G04 #@! TF.CreationDate,2020-04-01T15:23:21+02:00*
G04 #@! TF.ProjectId,hbruecke,68627275-6563-46b6-952e-6b696361645f,rev?*
G04 #@! TF.SameCoordinates,Original*
G04 #@! TF.FileFunction,Paste,Top*
G04 #@! TF.FilePolarity,Positive*
%FSLAX46Y46*%
G04 Gerber Fmt 4.6, Leading zero omitted, Abs format (unit mm)*
G04 Created by KiCad (PCBNEW (5.1.5)-3) date 2020-04-01 15:23:21*
%MOMM*%
%LPD*%
G04 APERTURE LIST*
%ADD10C,0.050000*%
%ADD11R,2.375000X0.700000*%
%ADD12C,0.100000*%
%ADD13R,3.500000X2.300000*%
G04 APERTURE END LIST*
D10*
X154940000Y-77470000D02*
X63500000Y-77470000D01*
X154940000Y-148590000D02*
X154940000Y-77470000D01*
X63500000Y-148590000D02*
X154940000Y-148590000D01*
X63500000Y-77470000D02*
X63500000Y-148590000D01*
D11*
X85232000Y-118745000D03*
X85232000Y-117475000D03*
X85232000Y-116205000D03*
X85232000Y-114935000D03*
X85232000Y-113665000D03*
X85232000Y-112395000D03*
X85232000Y-111125000D03*
X85232000Y-109855000D03*
X95108000Y-109855000D03*
X95108000Y-111125000D03*
X95108000Y-112395000D03*
X95108000Y-113665000D03*
X95108000Y-114935000D03*
X95108000Y-116205000D03*
X95108000Y-117475000D03*
X95108000Y-118745000D03*
D12*
G36*
X103969504Y-108726204D02*
G01*
X103993773Y-108729804D01*
X104017571Y-108735765D01*
X104040671Y-108744030D01*
X104062849Y-108754520D01*
X104083893Y-108767133D01*
X104103598Y-108781747D01*
X104121777Y-108798223D01*
X104138253Y-108816402D01*
X104152867Y-108836107D01*
X104165480Y-108857151D01*
X104175970Y-108879329D01*
X104184235Y-108902429D01*
X104190196Y-108926227D01*
X104193796Y-108950496D01*
X104195000Y-108975000D01*
X104195000Y-109900000D01*
X104193796Y-109924504D01*
X104190196Y-109948773D01*
X104184235Y-109972571D01*
X104175970Y-109995671D01*
X104165480Y-110017849D01*
X104152867Y-110038893D01*
X104138253Y-110058598D01*
X104121777Y-110076777D01*
X104103598Y-110093253D01*
X104083893Y-110107867D01*
X104062849Y-110120480D01*
X104040671Y-110130970D01*
X104017571Y-110139235D01*
X103993773Y-110145196D01*
X103969504Y-110148796D01*
X103945000Y-110150000D01*
X101795000Y-110150000D01*
X101770496Y-110148796D01*
X101746227Y-110145196D01*
X101722429Y-110139235D01*
X101699329Y-110130970D01*
X101677151Y-110120480D01*
X101656107Y-110107867D01*
X101636402Y-110093253D01*
X101618223Y-110076777D01*
X101601747Y-110058598D01*
X101587133Y-110038893D01*
X101574520Y-110017849D01*
X101564030Y-109995671D01*
X101555765Y-109972571D01*
X101549804Y-109948773D01*
X101546204Y-109924504D01*
X101545000Y-109900000D01*
X101545000Y-108975000D01*
X101546204Y-108950496D01*
X101549804Y-108926227D01*
X101555765Y-108902429D01*
X101564030Y-108879329D01*
X101574520Y-108857151D01*
X101587133Y-108836107D01*
X101601747Y-108816402D01*
X101618223Y-108798223D01*
X101636402Y-108781747D01*
X101656107Y-108767133D01*
X101677151Y-108754520D01*
X101699329Y-108744030D01*
X101722429Y-108735765D01*
X101746227Y-108729804D01*
X101770496Y-108726204D01*
X101795000Y-108725000D01*
X103945000Y-108725000D01*
X103969504Y-108726204D01*
G37*
G36*
X103969504Y-105751204D02*
G01*
X103993773Y-105754804D01*
X104017571Y-105760765D01*
X104040671Y-105769030D01*
X104062849Y-105779520D01*
X104083893Y-105792133D01*
X104103598Y-105806747D01*
X104121777Y-105823223D01*
X104138253Y-105841402D01*
X104152867Y-105861107D01*
X104165480Y-105882151D01*
X104175970Y-105904329D01*
X104184235Y-105927429D01*
X104190196Y-105951227D01*
X104193796Y-105975496D01*
X104195000Y-106000000D01*
X104195000Y-106925000D01*
X104193796Y-106949504D01*
X104190196Y-106973773D01*
X104184235Y-106997571D01*
X104175970Y-107020671D01*
X104165480Y-107042849D01*
X104152867Y-107063893D01*
X104138253Y-107083598D01*
X104121777Y-107101777D01*
X104103598Y-107118253D01*
X104083893Y-107132867D01*
X104062849Y-107145480D01*
X104040671Y-107155970D01*
X104017571Y-107164235D01*
X103993773Y-107170196D01*
X103969504Y-107173796D01*
X103945000Y-107175000D01*
X101795000Y-107175000D01*
X101770496Y-107173796D01*
X101746227Y-107170196D01*
X101722429Y-107164235D01*
X101699329Y-107155970D01*
X101677151Y-107145480D01*
X101656107Y-107132867D01*
X101636402Y-107118253D01*
X101618223Y-107101777D01*
X101601747Y-107083598D01*
X101587133Y-107063893D01*
X101574520Y-107042849D01*
X101564030Y-107020671D01*
X101555765Y-106997571D01*
X101549804Y-106973773D01*
X101546204Y-106949504D01*
X101545000Y-106925000D01*
X101545000Y-106000000D01*
X101546204Y-105975496D01*
X101549804Y-105951227D01*
X101555765Y-105927429D01*
X101564030Y-105904329D01*
X101574520Y-105882151D01*
X101587133Y-105861107D01*
X101601747Y-105841402D01*
X101618223Y-105823223D01*
X101636402Y-105806747D01*
X101656107Y-105792133D01*
X101677151Y-105779520D01*
X101699329Y-105769030D01*
X101722429Y-105760765D01*
X101746227Y-105754804D01*
X101770496Y-105751204D01*
X101795000Y-105750000D01*
X103945000Y-105750000D01*
X103969504Y-105751204D01*
G37*
G36*
X109049504Y-105751204D02*
G01*
X109073773Y-105754804D01*
X109097571Y-105760765D01*
X109120671Y-105769030D01*
X109142849Y-105779520D01*
X109163893Y-105792133D01*
X109183598Y-105806747D01*
X109201777Y-105823223D01*
X109218253Y-105841402D01*
X109232867Y-105861107D01*
X109245480Y-105882151D01*
X109255970Y-105904329D01*
X109264235Y-105927429D01*
X109270196Y-105951227D01*
X109273796Y-105975496D01*
X109275000Y-106000000D01*
X109275000Y-106925000D01*
X109273796Y-106949504D01*
X109270196Y-106973773D01*
X109264235Y-106997571D01*
X109255970Y-107020671D01*
X109245480Y-107042849D01*
X109232867Y-107063893D01*
X109218253Y-107083598D01*
X109201777Y-107101777D01*
X109183598Y-107118253D01*
X109163893Y-107132867D01*
X109142849Y-107145480D01*
X109120671Y-107155970D01*
X109097571Y-107164235D01*
X109073773Y-107170196D01*
X109049504Y-107173796D01*
X109025000Y-107175000D01*
X106875000Y-107175000D01*
X106850496Y-107173796D01*
X106826227Y-107170196D01*
X106802429Y-107164235D01*
X106779329Y-107155970D01*
X106757151Y-107145480D01*
X106736107Y-107132867D01*
X106716402Y-107118253D01*
X106698223Y-107101777D01*
X106681747Y-107083598D01*
X106667133Y-107063893D01*
X106654520Y-107042849D01*
X106644030Y-107020671D01*
X106635765Y-106997571D01*
X106629804Y-106973773D01*
X106626204Y-106949504D01*
X106625000Y-106925000D01*
X106625000Y-106000000D01*
X106626204Y-105975496D01*
X106629804Y-105951227D01*
X106635765Y-105927429D01*
X106644030Y-105904329D01*
X106654520Y-105882151D01*
X106667133Y-105861107D01*
X106681747Y-105841402D01*
X106698223Y-105823223D01*
X106716402Y-105806747D01*
X106736107Y-105792133D01*
X106757151Y-105779520D01*
X106779329Y-105769030D01*
X106802429Y-105760765D01*
X106826227Y-105754804D01*
X106850496Y-105751204D01*
X106875000Y-105750000D01*
X109025000Y-105750000D01*
X109049504Y-105751204D01*
G37*
G36*
X109049504Y-108726204D02*
G01*
X109073773Y-108729804D01*
X109097571Y-108735765D01*
X109120671Y-108744030D01*
X109142849Y-108754520D01*
X109163893Y-108767133D01*
X109183598Y-108781747D01*
X109201777Y-108798223D01*
X109218253Y-108816402D01*
X109232867Y-108836107D01*
X109245480Y-108857151D01*
X109255970Y-108879329D01*
X109264235Y-108902429D01*
X109270196Y-108926227D01*
X109273796Y-108950496D01*
X109275000Y-108975000D01*
X109275000Y-109900000D01*
X109273796Y-109924504D01*
X109270196Y-109948773D01*
X109264235Y-109972571D01*
X109255970Y-109995671D01*
X109245480Y-110017849D01*
X109232867Y-110038893D01*
X109218253Y-110058598D01*
X109201777Y-110076777D01*
X109183598Y-110093253D01*
X109163893Y-110107867D01*
X109142849Y-110120480D01*
X109120671Y-110130970D01*
X109097571Y-110139235D01*
X109073773Y-110145196D01*
X109049504Y-110148796D01*
X109025000Y-110150000D01*
X106875000Y-110150000D01*
X106850496Y-110148796D01*
X106826227Y-110145196D01*
X106802429Y-110139235D01*
X106779329Y-110130970D01*
X106757151Y-110120480D01*
X106736107Y-110107867D01*
X106716402Y-110093253D01*
X106698223Y-110076777D01*
X106681747Y-110058598D01*
X106667133Y-110038893D01*
X106654520Y-110017849D01*
X106644030Y-109995671D01*
X106635765Y-109972571D01*
X106629804Y-109948773D01*
X106626204Y-109924504D01*
X106625000Y-109900000D01*
X106625000Y-108975000D01*
X106626204Y-108950496D01*
X106629804Y-108926227D01*
X106635765Y-108902429D01*
X106644030Y-108879329D01*
X106654520Y-108857151D01*
X106667133Y-108836107D01*
X106681747Y-108816402D01*
X106698223Y-108798223D01*
X106716402Y-108781747D01*
X106736107Y-108767133D01*
X106757151Y-108754520D01*
X106779329Y-108744030D01*
X106802429Y-108735765D01*
X106826227Y-108729804D01*
X106850496Y-108726204D01*
X106875000Y-108725000D01*
X109025000Y-108725000D01*
X109049504Y-108726204D01*
G37*
G36*
X114129504Y-108726204D02*
G01*
X114153773Y-108729804D01*
X114177571Y-108735765D01*
X114200671Y-108744030D01*
X114222849Y-108754520D01*
X114243893Y-108767133D01*
X114263598Y-108781747D01*
X114281777Y-108798223D01*
X114298253Y-108816402D01*
X114312867Y-108836107D01*
X114325480Y-108857151D01*
X114335970Y-108879329D01*
X114344235Y-108902429D01*
X114350196Y-108926227D01*
X114353796Y-108950496D01*
X114355000Y-108975000D01*
X114355000Y-109900000D01*
X114353796Y-109924504D01*
X114350196Y-109948773D01*
X114344235Y-109972571D01*
X114335970Y-109995671D01*
X114325480Y-110017849D01*
X114312867Y-110038893D01*
X114298253Y-110058598D01*
X114281777Y-110076777D01*
X114263598Y-110093253D01*
X114243893Y-110107867D01*
X114222849Y-110120480D01*
X114200671Y-110130970D01*
X114177571Y-110139235D01*
X114153773Y-110145196D01*
X114129504Y-110148796D01*
X114105000Y-110150000D01*
X111955000Y-110150000D01*
X111930496Y-110148796D01*
X111906227Y-110145196D01*
X111882429Y-110139235D01*
X111859329Y-110130970D01*
X111837151Y-110120480D01*
X111816107Y-110107867D01*
X111796402Y-110093253D01*
X111778223Y-110076777D01*
X111761747Y-110058598D01*
X111747133Y-110038893D01*
X111734520Y-110017849D01*
X111724030Y-109995671D01*
X111715765Y-109972571D01*
X111709804Y-109948773D01*
X111706204Y-109924504D01*
X111705000Y-109900000D01*
X111705000Y-108975000D01*
X111706204Y-108950496D01*
X111709804Y-108926227D01*
X111715765Y-108902429D01*
X111724030Y-108879329D01*
X111734520Y-108857151D01*
X111747133Y-108836107D01*
X111761747Y-108816402D01*
X111778223Y-108798223D01*
X111796402Y-108781747D01*
X111816107Y-108767133D01*
X111837151Y-108754520D01*
X111859329Y-108744030D01*
X111882429Y-108735765D01*
X111906227Y-108729804D01*
X111930496Y-108726204D01*
X111955000Y-108725000D01*
X114105000Y-108725000D01*
X114129504Y-108726204D01*
G37*
G36*
X114129504Y-105751204D02*
G01*
X114153773Y-105754804D01*
X114177571Y-105760765D01*
X114200671Y-105769030D01*
X114222849Y-105779520D01*
X114243893Y-105792133D01*
X114263598Y-105806747D01*
X114281777Y-105823223D01*
X114298253Y-105841402D01*
X114312867Y-105861107D01*
X114325480Y-105882151D01*
X114335970Y-105904329D01*
X114344235Y-105927429D01*
X114350196Y-105951227D01*
X114353796Y-105975496D01*
X114355000Y-106000000D01*
X114355000Y-106925000D01*
X114353796Y-106949504D01*
X114350196Y-106973773D01*
X114344235Y-106997571D01*
X114335970Y-107020671D01*
X114325480Y-107042849D01*
X114312867Y-107063893D01*
X114298253Y-107083598D01*
X114281777Y-107101777D01*
X114263598Y-107118253D01*
X114243893Y-107132867D01*
X114222849Y-107145480D01*
X114200671Y-107155970D01*
X114177571Y-107164235D01*
X114153773Y-107170196D01*
X114129504Y-107173796D01*
X114105000Y-107175000D01*
X111955000Y-107175000D01*
X111930496Y-107173796D01*
X111906227Y-107170196D01*
X111882429Y-107164235D01*
X111859329Y-107155970D01*
X111837151Y-107145480D01*
X111816107Y-107132867D01*
X111796402Y-107118253D01*
X111778223Y-107101777D01*
X111761747Y-107083598D01*
X111747133Y-107063893D01*
X111734520Y-107042849D01*
X111724030Y-107020671D01*
X111715765Y-106997571D01*
X111709804Y-106973773D01*
X111706204Y-106949504D01*
X111705000Y-106925000D01*
X111705000Y-106000000D01*
X111706204Y-105975496D01*
X111709804Y-105951227D01*
X111715765Y-105927429D01*
X111724030Y-105904329D01*
X111734520Y-105882151D01*
X111747133Y-105861107D01*
X111761747Y-105841402D01*
X111778223Y-105823223D01*
X111796402Y-105806747D01*
X111816107Y-105792133D01*
X111837151Y-105779520D01*
X111859329Y-105769030D01*
X111882429Y-105760765D01*
X111906227Y-105754804D01*
X111930496Y-105751204D01*
X111955000Y-105750000D01*
X114105000Y-105750000D01*
X114129504Y-105751204D01*
G37*
G36*
X131549505Y-99006204D02*
G01*
X131573773Y-99009804D01*
X131597572Y-99015765D01*
X131620671Y-99024030D01*
X131642850Y-99034520D01*
X131663893Y-99047132D01*
X131683599Y-99061747D01*
X131701777Y-99078223D01*
X131718253Y-99096401D01*
X131732868Y-99116107D01*
X131745480Y-99137150D01*
X131755970Y-99159329D01*
X131764235Y-99182428D01*
X131770196Y-99206227D01*
X131773796Y-99230495D01*
X131775000Y-99254999D01*
X131775000Y-101405001D01*
X131773796Y-101429505D01*
X131770196Y-101453773D01*
X131764235Y-101477572D01*
X131755970Y-101500671D01*
X131745480Y-101522850D01*
X131732868Y-101543893D01*
X131718253Y-101563599D01*
X131701777Y-101581777D01*
X131683599Y-101598253D01*
X131663893Y-101612868D01*
X131642850Y-101625480D01*
X131620671Y-101635970D01*
X131597572Y-101644235D01*
X131573773Y-101650196D01*
X131549505Y-101653796D01*
X131525001Y-101655000D01*
X130499999Y-101655000D01*
X130475495Y-101653796D01*
X130451227Y-101650196D01*
X130427428Y-101644235D01*
X130404329Y-101635970D01*
X130382150Y-101625480D01*
X130361107Y-101612868D01*
X130341401Y-101598253D01*
X130323223Y-101581777D01*
X130306747Y-101563599D01*
X130292132Y-101543893D01*
X130279520Y-101522850D01*
X130269030Y-101500671D01*
X130260765Y-101477572D01*
X130254804Y-101453773D01*
X130251204Y-101429505D01*
X130250000Y-101405001D01*
X130250000Y-99254999D01*
X130251204Y-99230495D01*
X130254804Y-99206227D01*
X130260765Y-99182428D01*
X130269030Y-99159329D01*
X130279520Y-99137150D01*
X130292132Y-99116107D01*
X130306747Y-99096401D01*
X130323223Y-99078223D01*
X130341401Y-99061747D01*
X130361107Y-99047132D01*
X130382150Y-99034520D01*
X130404329Y-99024030D01*
X130427428Y-99015765D01*
X130451227Y-99009804D01*
X130475495Y-99006204D01*
X130499999Y-99005000D01*
X131525001Y-99005000D01*
X131549505Y-99006204D01*
G37*
G36*
X136224505Y-99006204D02*
G01*
X136248773Y-99009804D01*
X136272572Y-99015765D01*
X136295671Y-99024030D01*
X136317850Y-99034520D01*
X136338893Y-99047132D01*
X136358599Y-99061747D01*
X136376777Y-99078223D01*
X136393253Y-99096401D01*
X136407868Y-99116107D01*
X136420480Y-99137150D01*
X136430970Y-99159329D01*
X136439235Y-99182428D01*
X136445196Y-99206227D01*
X136448796Y-99230495D01*
X136450000Y-99254999D01*
X136450000Y-101405001D01*
X136448796Y-101429505D01*
X136445196Y-101453773D01*
X136439235Y-101477572D01*
X136430970Y-101500671D01*
X136420480Y-101522850D01*
X136407868Y-101543893D01*
X136393253Y-101563599D01*
X136376777Y-101581777D01*
X136358599Y-101598253D01*
X136338893Y-101612868D01*
X136317850Y-101625480D01*
X136295671Y-101635970D01*
X136272572Y-101644235D01*
X136248773Y-101650196D01*
X136224505Y-101653796D01*
X136200001Y-101655000D01*
X135174999Y-101655000D01*
X135150495Y-101653796D01*
X135126227Y-101650196D01*
X135102428Y-101644235D01*
X135079329Y-101635970D01*
X135057150Y-101625480D01*
X135036107Y-101612868D01*
X135016401Y-101598253D01*
X134998223Y-101581777D01*
X134981747Y-101563599D01*
X134967132Y-101543893D01*
X134954520Y-101522850D01*
X134944030Y-101500671D01*
X134935765Y-101477572D01*
X134929804Y-101453773D01*
X134926204Y-101429505D01*
X134925000Y-101405001D01*
X134925000Y-99254999D01*
X134926204Y-99230495D01*
X134929804Y-99206227D01*
X134935765Y-99182428D01*
X134944030Y-99159329D01*
X134954520Y-99137150D01*
X134967132Y-99116107D01*
X134981747Y-99096401D01*
X134998223Y-99078223D01*
X135016401Y-99061747D01*
X135036107Y-99047132D01*
X135057150Y-99034520D01*
X135079329Y-99024030D01*
X135102428Y-99015765D01*
X135126227Y-99009804D01*
X135150495Y-99006204D01*
X135174999Y-99005000D01*
X136200001Y-99005000D01*
X136224505Y-99006204D01*
G37*
D13*
X114460000Y-114935000D03*
X109060000Y-114935000D03*
M02*
