M48
; DRILL file {KiCad (5.1.5)-3} date 01.04.2020 15:23:53
; FORMAT={-:-/ absolute / inch / decimal}
; #@! TF.CreationDate,2020-04-01T15:23:53+02:00
; #@! TF.GenerationSoftware,Kicad,Pcbnew,(5.1.5)-3
FMAT,2
INCH
T1C0.0157
T2C0.0315
T3C0.0394
T4C0.0472
T5C0.0520
T6C0.0591
T7C0.1260
%
G90
G05
T1
X3.725Y-4.625
X3.75Y-4.275
X4.15Y-4.95
T2
X4.0Y-4.4531
X4.0Y-4.65
X3.4963Y-4.125
X3.575Y-4.125
T3
X5.5118Y-3.7402
X5.25Y-4.4
X5.25Y-4.6953
T4
X3.9Y-4.9
X4.5Y-4.9
X3.95Y-4.0
X4.55Y-4.0
T5
X5.675Y-4.2
X5.675Y-4.3969
X5.675Y-4.5937
X3.0Y-3.7063
X3.0Y-3.9031
X3.0Y-4.1
X3.525Y-3.5
X3.7219Y-3.5
X4.1563Y-5.35
X4.3531Y-5.35
X4.55Y-5.35
X3.0Y-4.9031
X3.0Y-5.1
X4.025Y-3.5
X4.2219Y-3.5
X3.4563Y-5.35
X3.6531Y-5.35
X3.85Y-5.35
X3.0Y-4.4031
X3.0Y-4.6
T6
X4.9Y-4.9
X4.9Y-5.1146
X4.9Y-5.3291
X4.9Y-3.95
X4.9Y-4.1646
X4.9Y-4.3791
T7
X2.9528Y-3.3465
X5.5118Y-3.3465
X2.9528Y-5.5118
X5.5118Y-5.5118
T0
M30
