G04 #@! TF.GenerationSoftware,KiCad,Pcbnew,(5.1.5)-3*
G04 #@! TF.CreationDate,2020-04-01T15:23:21+02:00*
G04 #@! TF.ProjectId,hbruecke,68627275-6563-46b6-952e-6b696361645f,rev?*
G04 #@! TF.SameCoordinates,Original*
G04 #@! TF.FileFunction,Copper,L2,Bot*
G04 #@! TF.FilePolarity,Positive*
%FSLAX46Y46*%
G04 Gerber Fmt 4.6, Leading zero omitted, Abs format (unit mm)*
G04 Created by KiCad (PCBNEW (5.1.5)-3) date 2020-04-01 15:23:21*
%MOMM*%
%LPD*%
G04 APERTURE LIST*
%ADD10C,0.050000*%
%ADD11C,1.600000*%
%ADD12R,1.600000X1.600000*%
%ADD13O,4.500000X2.500000*%
%ADD14R,4.500000X2.500000*%
%ADD15R,1.700000X1.700000*%
%ADD16O,3.960000X1.980000*%
%ADD17R,3.960000X1.980000*%
%ADD18O,1.980000X3.960000*%
%ADD19R,1.980000X3.960000*%
%ADD20C,2.000000*%
%ADD21O,2.400000X2.400000*%
%ADD22C,2.400000*%
%ADD23C,0.800000*%
%ADD24C,1.000000*%
%ADD25C,0.500000*%
%ADD26C,0.254000*%
G04 APERTURE END LIST*
D10*
X154940000Y-77470000D02*
X63500000Y-77470000D01*
X154940000Y-148590000D02*
X154940000Y-77470000D01*
X63500000Y-148590000D02*
X154940000Y-148590000D01*
X63500000Y-77470000D02*
X63500000Y-148590000D01*
D11*
X88805000Y-104775000D03*
D12*
X90805000Y-104775000D03*
D13*
X124460000Y-135360000D03*
X124460000Y-129910000D03*
D14*
X124460000Y-124460000D03*
D13*
X124460000Y-111230000D03*
X124460000Y-105780000D03*
D14*
X124460000Y-100330000D03*
D15*
X140000000Y-95000000D03*
D16*
X144145000Y-116680000D03*
X144145000Y-111680000D03*
D17*
X144145000Y-106680000D03*
D16*
X76200000Y-124540000D03*
D17*
X76200000Y-129540000D03*
D16*
X76200000Y-111840000D03*
D17*
X76200000Y-116840000D03*
D18*
X87790000Y-135890000D03*
X92790000Y-135890000D03*
D19*
X97790000Y-135890000D03*
D18*
X107235000Y-88900000D03*
D19*
X102235000Y-88900000D03*
D18*
X105570000Y-135890000D03*
X110570000Y-135890000D03*
D19*
X115570000Y-135890000D03*
D18*
X94535000Y-88900000D03*
D19*
X89535000Y-88900000D03*
D16*
X76200000Y-94140000D03*
X76200000Y-99140000D03*
D17*
X76200000Y-104140000D03*
D20*
X133350000Y-119260000D03*
X133350000Y-111760000D03*
D21*
X99060000Y-124460000D03*
D22*
X114300000Y-124460000D03*
D21*
X100330000Y-101600000D03*
D22*
X115570000Y-101600000D03*
D11*
X101600000Y-113110000D03*
D12*
X101600000Y-118110000D03*
D23*
X95250000Y-108585000D03*
X94615000Y-117475000D03*
X105410000Y-125730000D03*
D24*
X98425000Y-101600000D02*
X100330000Y-101600000D01*
X95250000Y-108585000D02*
X95250000Y-104775000D01*
X95250000Y-104775000D02*
X98425000Y-101600000D01*
D25*
X94615000Y-117475000D02*
X92710000Y-117475000D01*
X88805000Y-113570000D02*
X88805000Y-104775000D01*
D24*
X92710000Y-117475000D02*
X92710000Y-122555000D01*
X105570000Y-135890000D02*
X105570000Y-134145000D01*
X92710000Y-117475000D02*
X88805000Y-113570000D01*
X105570000Y-132910000D02*
X105570000Y-135890000D01*
X109825000Y-128655000D02*
X105570000Y-132910000D01*
X100099999Y-132409999D02*
X88290001Y-132409999D01*
X87790000Y-132910000D02*
X87790000Y-135890000D01*
X88290001Y-132409999D02*
X87790000Y-132910000D01*
X103580000Y-135890000D02*
X100099999Y-132409999D01*
X105570000Y-135890000D02*
X103580000Y-135890000D01*
X87790000Y-127475000D02*
X87790000Y-135890000D01*
X92710000Y-122555000D02*
X87790000Y-127475000D01*
X133350000Y-117499213D02*
X133350000Y-116085000D01*
X133350000Y-119760000D02*
X133350000Y-117499213D01*
X143550000Y-116085000D02*
X144145000Y-116680000D01*
X133350000Y-116085000D02*
X143550000Y-116085000D01*
X105570000Y-125570000D02*
X105570000Y-120672960D01*
X105570000Y-120672960D02*
X118110000Y-107950000D01*
X120280000Y-105780000D02*
X124460000Y-105780000D01*
X118110000Y-107950000D02*
X120280000Y-105780000D01*
X114300000Y-124460000D02*
X124460000Y-124460000D01*
D26*
G36*
X152788000Y-146438000D02*
G01*
X65652000Y-146438000D01*
X65652000Y-139632923D01*
X71273000Y-139632923D01*
X71273000Y-140367077D01*
X71416227Y-141087126D01*
X71697176Y-141765396D01*
X72105050Y-142375824D01*
X72624176Y-142894950D01*
X73234604Y-143302824D01*
X73912874Y-143583773D01*
X74632923Y-143727000D01*
X75367077Y-143727000D01*
X76087126Y-143583773D01*
X76765396Y-143302824D01*
X77375824Y-142894950D01*
X77894950Y-142375824D01*
X78302824Y-141765396D01*
X78583773Y-141087126D01*
X78727000Y-140367077D01*
X78727000Y-139632923D01*
X78583773Y-138912874D01*
X78302824Y-138234604D01*
X77894950Y-137624176D01*
X77375824Y-137105050D01*
X76765396Y-136697176D01*
X76087126Y-136416227D01*
X75367077Y-136273000D01*
X74632923Y-136273000D01*
X73912874Y-136416227D01*
X73234604Y-136697176D01*
X72624176Y-137105050D01*
X72105050Y-137624176D01*
X71697176Y-138234604D01*
X71416227Y-138912874D01*
X71273000Y-139632923D01*
X65652000Y-139632923D01*
X65652000Y-136017000D01*
X86165000Y-136017000D01*
X86165000Y-137007000D01*
X86221000Y-137321582D01*
X86337296Y-137619194D01*
X86509419Y-137888399D01*
X86730754Y-138118852D01*
X86992795Y-138301696D01*
X87285472Y-138429905D01*
X87411135Y-138460218D01*
X87663000Y-138340740D01*
X87663000Y-136017000D01*
X87917000Y-136017000D01*
X87917000Y-138340740D01*
X88168865Y-138460218D01*
X88294528Y-138429905D01*
X88587205Y-138301696D01*
X88849246Y-138118852D01*
X89070581Y-137888399D01*
X89242704Y-137619194D01*
X89359000Y-137321582D01*
X89415000Y-137007000D01*
X89415000Y-136017000D01*
X87917000Y-136017000D01*
X87663000Y-136017000D01*
X86165000Y-136017000D01*
X65652000Y-136017000D01*
X65652000Y-134773000D01*
X86165000Y-134773000D01*
X86165000Y-135763000D01*
X87663000Y-135763000D01*
X87663000Y-133439260D01*
X87917000Y-133439260D01*
X87917000Y-135763000D01*
X89415000Y-135763000D01*
X89415000Y-134773000D01*
X89410351Y-134746880D01*
X89673000Y-134746880D01*
X89673000Y-137033119D01*
X89718101Y-137491038D01*
X89896334Y-138078595D01*
X90185770Y-138620090D01*
X90575284Y-139094716D01*
X91049909Y-139484230D01*
X91591404Y-139773666D01*
X92178961Y-139951899D01*
X92790000Y-140012081D01*
X93401038Y-139951899D01*
X93988595Y-139773666D01*
X94530090Y-139484230D01*
X95004716Y-139094716D01*
X95029118Y-139064983D01*
X95288707Y-139381293D01*
X95612585Y-139647093D01*
X95982094Y-139844599D01*
X96383035Y-139966224D01*
X96800000Y-140007291D01*
X98780000Y-140007291D01*
X99196965Y-139966224D01*
X99597906Y-139844599D01*
X99967415Y-139647093D01*
X100291293Y-139381293D01*
X100557093Y-139057415D01*
X100754599Y-138687906D01*
X100876224Y-138286965D01*
X100917291Y-137870000D01*
X100917291Y-136017000D01*
X103945000Y-136017000D01*
X103945000Y-137007000D01*
X104001000Y-137321582D01*
X104117296Y-137619194D01*
X104289419Y-137888399D01*
X104510754Y-138118852D01*
X104772795Y-138301696D01*
X105065472Y-138429905D01*
X105191135Y-138460218D01*
X105443000Y-138340740D01*
X105443000Y-136017000D01*
X105697000Y-136017000D01*
X105697000Y-138340740D01*
X105948865Y-138460218D01*
X106074528Y-138429905D01*
X106367205Y-138301696D01*
X106629246Y-138118852D01*
X106850581Y-137888399D01*
X107022704Y-137619194D01*
X107139000Y-137321582D01*
X107195000Y-137007000D01*
X107195000Y-136017000D01*
X105697000Y-136017000D01*
X105443000Y-136017000D01*
X103945000Y-136017000D01*
X100917291Y-136017000D01*
X100917291Y-134773000D01*
X103945000Y-134773000D01*
X103945000Y-135763000D01*
X105443000Y-135763000D01*
X105443000Y-133439260D01*
X105697000Y-133439260D01*
X105697000Y-135763000D01*
X107195000Y-135763000D01*
X107195000Y-134773000D01*
X107190351Y-134746880D01*
X107453000Y-134746880D01*
X107453000Y-137033119D01*
X107498101Y-137491038D01*
X107676334Y-138078595D01*
X107965770Y-138620090D01*
X108355284Y-139094716D01*
X108829909Y-139484230D01*
X109371404Y-139773666D01*
X109958961Y-139951899D01*
X110570000Y-140012081D01*
X111181038Y-139951899D01*
X111768595Y-139773666D01*
X112310090Y-139484230D01*
X112784716Y-139094716D01*
X112809118Y-139064983D01*
X113068707Y-139381293D01*
X113392585Y-139647093D01*
X113762094Y-139844599D01*
X114163035Y-139966224D01*
X114580000Y-140007291D01*
X116560000Y-140007291D01*
X116976965Y-139966224D01*
X117377906Y-139844599D01*
X117747415Y-139647093D01*
X117764681Y-139632923D01*
X136273000Y-139632923D01*
X136273000Y-140367077D01*
X136416227Y-141087126D01*
X136697176Y-141765396D01*
X137105050Y-142375824D01*
X137624176Y-142894950D01*
X138234604Y-143302824D01*
X138912874Y-143583773D01*
X139632923Y-143727000D01*
X140367077Y-143727000D01*
X141087126Y-143583773D01*
X141765396Y-143302824D01*
X142375824Y-142894950D01*
X142894950Y-142375824D01*
X143302824Y-141765396D01*
X143583773Y-141087126D01*
X143727000Y-140367077D01*
X143727000Y-139632923D01*
X143583773Y-138912874D01*
X143302824Y-138234604D01*
X142894950Y-137624176D01*
X142375824Y-137105050D01*
X141765396Y-136697176D01*
X141087126Y-136416227D01*
X140367077Y-136273000D01*
X139632923Y-136273000D01*
X138912874Y-136416227D01*
X138234604Y-136697176D01*
X137624176Y-137105050D01*
X137105050Y-137624176D01*
X136697176Y-138234604D01*
X136416227Y-138912874D01*
X136273000Y-139632923D01*
X117764681Y-139632923D01*
X118071293Y-139381293D01*
X118337093Y-139057415D01*
X118534599Y-138687906D01*
X118656224Y-138286965D01*
X118697291Y-137870000D01*
X118697291Y-135779645D01*
X121622305Y-135779645D01*
X121669886Y-135964025D01*
X121822122Y-136301653D01*
X122037301Y-136603094D01*
X122307153Y-136856763D01*
X122621309Y-137052912D01*
X122967695Y-137184004D01*
X123333000Y-137245000D01*
X124333000Y-137245000D01*
X124333000Y-135487000D01*
X124587000Y-135487000D01*
X124587000Y-137245000D01*
X125587000Y-137245000D01*
X125952305Y-137184004D01*
X126298691Y-137052912D01*
X126612847Y-136856763D01*
X126882699Y-136603094D01*
X127097878Y-136301653D01*
X127250114Y-135964025D01*
X127297695Y-135779645D01*
X127181572Y-135487000D01*
X124587000Y-135487000D01*
X124333000Y-135487000D01*
X121738428Y-135487000D01*
X121622305Y-135779645D01*
X118697291Y-135779645D01*
X118697291Y-134940355D01*
X121622305Y-134940355D01*
X121738428Y-135233000D01*
X124333000Y-135233000D01*
X124333000Y-133475000D01*
X124587000Y-133475000D01*
X124587000Y-135233000D01*
X127181572Y-135233000D01*
X127297695Y-134940355D01*
X127250114Y-134755975D01*
X127097878Y-134418347D01*
X126882699Y-134116906D01*
X126612847Y-133863237D01*
X126298691Y-133667088D01*
X125952305Y-133535996D01*
X125587000Y-133475000D01*
X124587000Y-133475000D01*
X124333000Y-133475000D01*
X123333000Y-133475000D01*
X122967695Y-133535996D01*
X122621309Y-133667088D01*
X122307153Y-133863237D01*
X122037301Y-134116906D01*
X121822122Y-134418347D01*
X121669886Y-134755975D01*
X121622305Y-134940355D01*
X118697291Y-134940355D01*
X118697291Y-133910000D01*
X118656224Y-133493035D01*
X118534599Y-133092094D01*
X118337093Y-132722585D01*
X118071293Y-132398707D01*
X117747415Y-132132907D01*
X117377906Y-131935401D01*
X116976965Y-131813776D01*
X116560000Y-131772709D01*
X114580000Y-131772709D01*
X114163035Y-131813776D01*
X113762094Y-131935401D01*
X113392585Y-132132907D01*
X113068707Y-132398707D01*
X112809118Y-132715017D01*
X112784716Y-132685284D01*
X112310091Y-132295770D01*
X111768596Y-132006334D01*
X111181039Y-131828101D01*
X110570000Y-131767919D01*
X109958962Y-131828101D01*
X109371405Y-132006334D01*
X108829910Y-132295770D01*
X108355285Y-132685284D01*
X107965770Y-133159909D01*
X107676334Y-133701404D01*
X107498101Y-134288961D01*
X107453000Y-134746880D01*
X107190351Y-134746880D01*
X107139000Y-134458418D01*
X107022704Y-134160806D01*
X106850581Y-133891601D01*
X106629246Y-133661148D01*
X106367205Y-133478304D01*
X106074528Y-133350095D01*
X105948865Y-133319782D01*
X105697000Y-133439260D01*
X105443000Y-133439260D01*
X105191135Y-133319782D01*
X105065472Y-133350095D01*
X104772795Y-133478304D01*
X104510754Y-133661148D01*
X104289419Y-133891601D01*
X104117296Y-134160806D01*
X104001000Y-134458418D01*
X103945000Y-134773000D01*
X100917291Y-134773000D01*
X100917291Y-133910000D01*
X100876224Y-133493035D01*
X100754599Y-133092094D01*
X100557093Y-132722585D01*
X100291293Y-132398707D01*
X99967415Y-132132907D01*
X99597906Y-131935401D01*
X99196965Y-131813776D01*
X98780000Y-131772709D01*
X96800000Y-131772709D01*
X96383035Y-131813776D01*
X95982094Y-131935401D01*
X95612585Y-132132907D01*
X95288707Y-132398707D01*
X95029118Y-132715017D01*
X95004716Y-132685284D01*
X94530091Y-132295770D01*
X93988596Y-132006334D01*
X93401039Y-131828101D01*
X92790000Y-131767919D01*
X92178962Y-131828101D01*
X91591405Y-132006334D01*
X91049910Y-132295770D01*
X90575285Y-132685284D01*
X90185770Y-133159909D01*
X89896334Y-133701404D01*
X89718101Y-134288961D01*
X89673000Y-134746880D01*
X89410351Y-134746880D01*
X89359000Y-134458418D01*
X89242704Y-134160806D01*
X89070581Y-133891601D01*
X88849246Y-133661148D01*
X88587205Y-133478304D01*
X88294528Y-133350095D01*
X88168865Y-133319782D01*
X87917000Y-133439260D01*
X87663000Y-133439260D01*
X87411135Y-133319782D01*
X87285472Y-133350095D01*
X86992795Y-133478304D01*
X86730754Y-133661148D01*
X86509419Y-133891601D01*
X86337296Y-134160806D01*
X86221000Y-134458418D01*
X86165000Y-134773000D01*
X65652000Y-134773000D01*
X65652000Y-124540000D01*
X72077919Y-124540000D01*
X72138101Y-125151039D01*
X72316334Y-125738596D01*
X72605770Y-126280091D01*
X72995284Y-126754716D01*
X73025017Y-126779118D01*
X72708707Y-127038707D01*
X72442907Y-127362585D01*
X72245401Y-127732094D01*
X72123776Y-128133035D01*
X72082709Y-128550000D01*
X72082709Y-130530000D01*
X72123776Y-130946965D01*
X72245401Y-131347906D01*
X72442907Y-131717415D01*
X72708707Y-132041293D01*
X73032585Y-132307093D01*
X73402094Y-132504599D01*
X73803035Y-132626224D01*
X74220000Y-132667291D01*
X78180000Y-132667291D01*
X78596965Y-132626224D01*
X78997906Y-132504599D01*
X79367415Y-132307093D01*
X79691293Y-132041293D01*
X79957093Y-131717415D01*
X80154599Y-131347906D01*
X80276224Y-130946965D01*
X80317291Y-130530000D01*
X80317291Y-128550000D01*
X80276224Y-128133035D01*
X80154599Y-127732094D01*
X79957093Y-127362585D01*
X79691293Y-127038707D01*
X79374983Y-126779118D01*
X79404716Y-126754716D01*
X79794230Y-126280091D01*
X80083666Y-125738596D01*
X80261899Y-125151039D01*
X80322081Y-124540000D01*
X80281928Y-124132319D01*
X95733000Y-124132319D01*
X95733000Y-124787681D01*
X95860855Y-125430450D01*
X96111651Y-126035925D01*
X96475750Y-126580839D01*
X96939161Y-127044250D01*
X97484075Y-127408349D01*
X98089550Y-127659145D01*
X98732319Y-127787000D01*
X99387681Y-127787000D01*
X100030450Y-127659145D01*
X100635925Y-127408349D01*
X101180839Y-127044250D01*
X101644250Y-126580839D01*
X102008349Y-126035925D01*
X102259145Y-125430450D01*
X102387000Y-124787681D01*
X102387000Y-124132319D01*
X102259145Y-123489550D01*
X102008349Y-122884075D01*
X101644250Y-122339161D01*
X101180839Y-121875750D01*
X100635925Y-121511651D01*
X100030450Y-121260855D01*
X99387681Y-121133000D01*
X98732319Y-121133000D01*
X98089550Y-121260855D01*
X97484075Y-121511651D01*
X96939161Y-121875750D01*
X96475750Y-122339161D01*
X96111651Y-122884075D01*
X95860855Y-123489550D01*
X95733000Y-124132319D01*
X80281928Y-124132319D01*
X80261899Y-123928961D01*
X80083666Y-123341404D01*
X79794230Y-122799909D01*
X79404716Y-122325284D01*
X78930091Y-121935770D01*
X78388596Y-121646334D01*
X77801039Y-121468101D01*
X77343120Y-121423000D01*
X75056880Y-121423000D01*
X74598961Y-121468101D01*
X74011404Y-121646334D01*
X73469909Y-121935770D01*
X72995284Y-122325284D01*
X72605770Y-122799909D01*
X72316334Y-123341404D01*
X72138101Y-123928961D01*
X72077919Y-124540000D01*
X65652000Y-124540000D01*
X65652000Y-111840000D01*
X72077919Y-111840000D01*
X72138101Y-112451039D01*
X72316334Y-113038596D01*
X72605770Y-113580091D01*
X72995284Y-114054716D01*
X73025017Y-114079118D01*
X72708707Y-114338707D01*
X72442907Y-114662585D01*
X72245401Y-115032094D01*
X72123776Y-115433035D01*
X72082709Y-115850000D01*
X72082709Y-117830000D01*
X72123776Y-118246965D01*
X72245401Y-118647906D01*
X72442907Y-119017415D01*
X72708707Y-119341293D01*
X73032585Y-119607093D01*
X73402094Y-119804599D01*
X73803035Y-119926224D01*
X74220000Y-119967291D01*
X78180000Y-119967291D01*
X78596965Y-119926224D01*
X78997906Y-119804599D01*
X79367415Y-119607093D01*
X79691293Y-119341293D01*
X79957093Y-119017415D01*
X80154599Y-118647906D01*
X80276224Y-118246965D01*
X80317291Y-117830000D01*
X80317291Y-117310000D01*
X98662709Y-117310000D01*
X98662709Y-118910000D01*
X98703776Y-119326965D01*
X98825401Y-119727906D01*
X99022907Y-120097415D01*
X99288707Y-120421293D01*
X99612585Y-120687093D01*
X99982094Y-120884599D01*
X100383035Y-121006224D01*
X100800000Y-121047291D01*
X102400000Y-121047291D01*
X102816965Y-121006224D01*
X102943001Y-120967991D01*
X102943000Y-125179470D01*
X102883000Y-125481112D01*
X102883000Y-125978888D01*
X102980111Y-126467099D01*
X103170602Y-126926983D01*
X103447151Y-127340869D01*
X103799131Y-127692849D01*
X104213017Y-127969398D01*
X104672901Y-128159889D01*
X105161112Y-128257000D01*
X105658888Y-128257000D01*
X106147099Y-128159889D01*
X106325179Y-128086125D01*
X106580172Y-128008774D01*
X107036543Y-127764839D01*
X107436557Y-127436557D01*
X107764839Y-127036544D01*
X108008774Y-126580173D01*
X108158989Y-126084982D01*
X108197000Y-125699048D01*
X108197000Y-124132319D01*
X110973000Y-124132319D01*
X110973000Y-124787681D01*
X111100855Y-125430450D01*
X111351651Y-126035925D01*
X111715750Y-126580839D01*
X112179161Y-127044250D01*
X112724075Y-127408349D01*
X113329550Y-127659145D01*
X113972319Y-127787000D01*
X114627681Y-127787000D01*
X115270450Y-127659145D01*
X115875925Y-127408349D01*
X116356859Y-127087000D01*
X120588496Y-127087000D01*
X120698707Y-127221293D01*
X121022585Y-127487093D01*
X121062881Y-127508632D01*
X121060547Y-127510547D01*
X120638542Y-128024762D01*
X120324964Y-128611425D01*
X120131863Y-129247992D01*
X120066661Y-129910000D01*
X120131863Y-130572008D01*
X120324964Y-131208575D01*
X120638542Y-131795238D01*
X121060547Y-132309453D01*
X121574762Y-132731458D01*
X122161425Y-133045036D01*
X122797992Y-133238137D01*
X123294107Y-133287000D01*
X125625893Y-133287000D01*
X126122008Y-133238137D01*
X126758575Y-133045036D01*
X127345238Y-132731458D01*
X127859453Y-132309453D01*
X128281458Y-131795238D01*
X128595036Y-131208575D01*
X128788137Y-130572008D01*
X128853339Y-129910000D01*
X128788137Y-129247992D01*
X128595036Y-128611425D01*
X128281458Y-128024762D01*
X127859453Y-127510547D01*
X127857119Y-127508632D01*
X127897415Y-127487093D01*
X128221293Y-127221293D01*
X128487093Y-126897415D01*
X128684599Y-126527906D01*
X128806224Y-126126965D01*
X128847291Y-125710000D01*
X128847291Y-123210000D01*
X128806224Y-122793035D01*
X128684599Y-122392094D01*
X128487093Y-122022585D01*
X128221293Y-121698707D01*
X127897415Y-121432907D01*
X127527906Y-121235401D01*
X127126965Y-121113776D01*
X126710000Y-121072709D01*
X122210000Y-121072709D01*
X121793035Y-121113776D01*
X121392094Y-121235401D01*
X121022585Y-121432907D01*
X120698707Y-121698707D01*
X120588496Y-121833000D01*
X116356859Y-121833000D01*
X115875925Y-121511651D01*
X115270450Y-121260855D01*
X114627681Y-121133000D01*
X113972319Y-121133000D01*
X113329550Y-121260855D01*
X112724075Y-121511651D01*
X112179161Y-121875750D01*
X111715750Y-122339161D01*
X111351651Y-122884075D01*
X111100855Y-123489550D01*
X110973000Y-124132319D01*
X108197000Y-124132319D01*
X108197000Y-121749970D01*
X109532077Y-120395413D01*
X132394192Y-120395413D01*
X132489956Y-120659814D01*
X132779571Y-120800704D01*
X133091108Y-120882384D01*
X133412595Y-120901718D01*
X133731675Y-120857961D01*
X134036088Y-120752795D01*
X134210044Y-120659814D01*
X134305808Y-120395413D01*
X133350000Y-119439605D01*
X132394192Y-120395413D01*
X109532077Y-120395413D01*
X110589468Y-119322595D01*
X131708282Y-119322595D01*
X131752039Y-119641675D01*
X131857205Y-119946088D01*
X131950186Y-120120044D01*
X132214587Y-120215808D01*
X133170395Y-119260000D01*
X133529605Y-119260000D01*
X134485413Y-120215808D01*
X134749814Y-120120044D01*
X134890704Y-119830429D01*
X134972384Y-119518892D01*
X134991718Y-119197405D01*
X134947961Y-118878325D01*
X134842795Y-118573912D01*
X134749814Y-118399956D01*
X134485413Y-118304192D01*
X133529605Y-119260000D01*
X133170395Y-119260000D01*
X132214587Y-118304192D01*
X131950186Y-118399956D01*
X131809296Y-118689571D01*
X131727616Y-119001108D01*
X131708282Y-119322595D01*
X110589468Y-119322595D01*
X111770248Y-118124587D01*
X132394192Y-118124587D01*
X133350000Y-119080395D01*
X134305808Y-118124587D01*
X134210044Y-117860186D01*
X133920429Y-117719296D01*
X133608892Y-117637616D01*
X133287405Y-117618282D01*
X132968325Y-117662039D01*
X132663912Y-117767205D01*
X132489956Y-117860186D01*
X132394192Y-118124587D01*
X111770248Y-118124587D01*
X112820644Y-117058865D01*
X141574782Y-117058865D01*
X141605095Y-117184528D01*
X141733304Y-117477205D01*
X141916148Y-117739246D01*
X142146601Y-117960581D01*
X142415806Y-118132704D01*
X142713418Y-118249000D01*
X143028000Y-118305000D01*
X144018000Y-118305000D01*
X144018000Y-116807000D01*
X144272000Y-116807000D01*
X144272000Y-118305000D01*
X145262000Y-118305000D01*
X145576582Y-118249000D01*
X145874194Y-118132704D01*
X146143399Y-117960581D01*
X146373852Y-117739246D01*
X146556696Y-117477205D01*
X146684905Y-117184528D01*
X146715218Y-117058865D01*
X146595740Y-116807000D01*
X144272000Y-116807000D01*
X144018000Y-116807000D01*
X141694260Y-116807000D01*
X141574782Y-117058865D01*
X112820644Y-117058865D01*
X113567477Y-116301135D01*
X141574782Y-116301135D01*
X141694260Y-116553000D01*
X144018000Y-116553000D01*
X144018000Y-115055000D01*
X144272000Y-115055000D01*
X144272000Y-116553000D01*
X146595740Y-116553000D01*
X146715218Y-116301135D01*
X146684905Y-116175472D01*
X146556696Y-115882795D01*
X146373852Y-115620754D01*
X146143399Y-115399419D01*
X145874194Y-115227296D01*
X145576582Y-115111000D01*
X145262000Y-115055000D01*
X144272000Y-115055000D01*
X144018000Y-115055000D01*
X143028000Y-115055000D01*
X142713418Y-115111000D01*
X142415806Y-115227296D01*
X142146601Y-115399419D01*
X141916148Y-115620754D01*
X141733304Y-115882795D01*
X141605095Y-116175472D01*
X141574782Y-116301135D01*
X113567477Y-116301135D01*
X119974368Y-109800770D01*
X121354470Y-108420669D01*
X121457227Y-108505000D01*
X121060547Y-108830547D01*
X120638542Y-109344762D01*
X120324964Y-109931425D01*
X120131863Y-110567992D01*
X120066661Y-111230000D01*
X120131863Y-111892008D01*
X120324964Y-112528575D01*
X120638542Y-113115238D01*
X121060547Y-113629453D01*
X121574762Y-114051458D01*
X122161425Y-114365036D01*
X122797992Y-114558137D01*
X123294107Y-114607000D01*
X125625893Y-114607000D01*
X126122008Y-114558137D01*
X126758575Y-114365036D01*
X127345238Y-114051458D01*
X127859453Y-113629453D01*
X128281458Y-113115238D01*
X128595036Y-112528575D01*
X128788137Y-111892008D01*
X128831472Y-111452017D01*
X130223000Y-111452017D01*
X130223000Y-112067983D01*
X130343169Y-112672112D01*
X130578889Y-113241190D01*
X130921101Y-113753346D01*
X131356654Y-114188899D01*
X131868810Y-114531111D01*
X132437888Y-114766831D01*
X133042017Y-114887000D01*
X133657983Y-114887000D01*
X134262112Y-114766831D01*
X134831190Y-114531111D01*
X135343346Y-114188899D01*
X135778899Y-113753346D01*
X136121111Y-113241190D01*
X136356831Y-112672112D01*
X136477000Y-112067983D01*
X136477000Y-111680000D01*
X140022919Y-111680000D01*
X140083101Y-112291039D01*
X140261334Y-112878596D01*
X140550770Y-113420091D01*
X140940284Y-113894716D01*
X141414909Y-114284230D01*
X141956404Y-114573666D01*
X142543961Y-114751899D01*
X143001880Y-114797000D01*
X145288120Y-114797000D01*
X145746039Y-114751899D01*
X146333596Y-114573666D01*
X146875091Y-114284230D01*
X147349716Y-113894716D01*
X147739230Y-113420091D01*
X148028666Y-112878596D01*
X148206899Y-112291039D01*
X148267081Y-111680000D01*
X148206899Y-111068961D01*
X148028666Y-110481404D01*
X147739230Y-109939909D01*
X147349716Y-109465284D01*
X147319983Y-109440882D01*
X147636293Y-109181293D01*
X147902093Y-108857415D01*
X148099599Y-108487906D01*
X148221224Y-108086965D01*
X148262291Y-107670000D01*
X148262291Y-105690000D01*
X148221224Y-105273035D01*
X148099599Y-104872094D01*
X147902093Y-104502585D01*
X147636293Y-104178707D01*
X147312415Y-103912907D01*
X146942906Y-103715401D01*
X146541965Y-103593776D01*
X146125000Y-103552709D01*
X142165000Y-103552709D01*
X141748035Y-103593776D01*
X141347094Y-103715401D01*
X140977585Y-103912907D01*
X140653707Y-104178707D01*
X140387907Y-104502585D01*
X140190401Y-104872094D01*
X140068776Y-105273035D01*
X140027709Y-105690000D01*
X140027709Y-107670000D01*
X140068776Y-108086965D01*
X140190401Y-108487906D01*
X140387907Y-108857415D01*
X140653707Y-109181293D01*
X140970017Y-109440882D01*
X140940284Y-109465284D01*
X140550770Y-109939909D01*
X140261334Y-110481404D01*
X140083101Y-111068961D01*
X140022919Y-111680000D01*
X136477000Y-111680000D01*
X136477000Y-111452017D01*
X136356831Y-110847888D01*
X136121111Y-110278810D01*
X135778899Y-109766654D01*
X135343346Y-109331101D01*
X134831190Y-108988889D01*
X134262112Y-108753169D01*
X133657983Y-108633000D01*
X133042017Y-108633000D01*
X132437888Y-108753169D01*
X131868810Y-108988889D01*
X131356654Y-109331101D01*
X130921101Y-109766654D01*
X130578889Y-110278810D01*
X130343169Y-110847888D01*
X130223000Y-111452017D01*
X128831472Y-111452017D01*
X128853339Y-111230000D01*
X128788137Y-110567992D01*
X128595036Y-109931425D01*
X128281458Y-109344762D01*
X127859453Y-108830547D01*
X127462773Y-108505000D01*
X127859453Y-108179453D01*
X128281458Y-107665238D01*
X128595036Y-107078575D01*
X128788137Y-106442008D01*
X128853339Y-105780000D01*
X128788137Y-105117992D01*
X128595036Y-104481425D01*
X128281458Y-103894762D01*
X127859453Y-103380547D01*
X127857119Y-103378632D01*
X127897415Y-103357093D01*
X128221293Y-103091293D01*
X128487093Y-102767415D01*
X128684599Y-102397906D01*
X128806224Y-101996965D01*
X128847291Y-101580000D01*
X128847291Y-99080000D01*
X128806224Y-98663035D01*
X128684599Y-98262094D01*
X128487093Y-97892585D01*
X128221293Y-97568707D01*
X127897415Y-97302907D01*
X127527906Y-97105401D01*
X127126965Y-96983776D01*
X126710000Y-96942709D01*
X122210000Y-96942709D01*
X121793035Y-96983776D01*
X121392094Y-97105401D01*
X121022585Y-97302907D01*
X120698707Y-97568707D01*
X120432907Y-97892585D01*
X120235401Y-98262094D01*
X120113776Y-98663035D01*
X120072709Y-99080000D01*
X120072709Y-101580000D01*
X120113776Y-101996965D01*
X120235401Y-102397906D01*
X120432907Y-102767415D01*
X120698707Y-103091293D01*
X120773897Y-103153000D01*
X120409037Y-103153000D01*
X120279999Y-103140291D01*
X120150962Y-103153000D01*
X120150952Y-103153000D01*
X119765018Y-103191011D01*
X119269827Y-103341226D01*
X118813456Y-103585161D01*
X118413443Y-103913443D01*
X118331179Y-104013682D01*
X116336943Y-106007919D01*
X116329614Y-106014023D01*
X116245656Y-106099206D01*
X116161180Y-106183682D01*
X116155136Y-106191047D01*
X104537291Y-117978398D01*
X104537291Y-117310000D01*
X104496224Y-116893035D01*
X104374599Y-116492094D01*
X104177093Y-116122585D01*
X103911293Y-115798707D01*
X103587415Y-115532907D01*
X103395693Y-115430430D01*
X103465854Y-115383550D01*
X103873550Y-114975854D01*
X104193874Y-114496455D01*
X104414518Y-113963775D01*
X104527000Y-113398284D01*
X104527000Y-112821716D01*
X104414518Y-112256225D01*
X104193874Y-111723545D01*
X103873550Y-111244146D01*
X103465854Y-110836450D01*
X102986455Y-110516126D01*
X102453775Y-110295482D01*
X101888284Y-110183000D01*
X101311716Y-110183000D01*
X100746225Y-110295482D01*
X100213545Y-110516126D01*
X99734146Y-110836450D01*
X99326450Y-111244146D01*
X99006126Y-111723545D01*
X98785482Y-112256225D01*
X98673000Y-112821716D01*
X98673000Y-113398284D01*
X98785482Y-113963775D01*
X99006126Y-114496455D01*
X99326450Y-114975854D01*
X99734146Y-115383550D01*
X99804307Y-115430430D01*
X99612585Y-115532907D01*
X99288707Y-115798707D01*
X99022907Y-116122585D01*
X98825401Y-116492094D01*
X98703776Y-116893035D01*
X98662709Y-117310000D01*
X80317291Y-117310000D01*
X80317291Y-115850000D01*
X80276224Y-115433035D01*
X80154599Y-115032094D01*
X79957093Y-114662585D01*
X79691293Y-114338707D01*
X79374983Y-114079118D01*
X79404716Y-114054716D01*
X79794230Y-113580091D01*
X80083666Y-113038596D01*
X80261899Y-112451039D01*
X80322081Y-111840000D01*
X80261899Y-111228961D01*
X80083666Y-110641404D01*
X79794230Y-110099909D01*
X79404716Y-109625284D01*
X78930091Y-109235770D01*
X78388596Y-108946334D01*
X77801039Y-108768101D01*
X77343120Y-108723000D01*
X75056880Y-108723000D01*
X74598961Y-108768101D01*
X74011404Y-108946334D01*
X73469909Y-109235770D01*
X72995284Y-109625284D01*
X72605770Y-110099909D01*
X72316334Y-110641404D01*
X72138101Y-111228961D01*
X72077919Y-111840000D01*
X65652000Y-111840000D01*
X65652000Y-94140000D01*
X72077919Y-94140000D01*
X72138101Y-94751039D01*
X72316334Y-95338596D01*
X72605770Y-95880091D01*
X72995284Y-96354716D01*
X73342904Y-96640000D01*
X72995284Y-96925284D01*
X72605770Y-97399909D01*
X72316334Y-97941404D01*
X72138101Y-98528961D01*
X72077919Y-99140000D01*
X72138101Y-99751039D01*
X72316334Y-100338596D01*
X72605770Y-100880091D01*
X72995284Y-101354716D01*
X73025017Y-101379118D01*
X72708707Y-101638707D01*
X72442907Y-101962585D01*
X72245401Y-102332094D01*
X72123776Y-102733035D01*
X72082709Y-103150000D01*
X72082709Y-105130000D01*
X72123776Y-105546965D01*
X72245401Y-105947906D01*
X72442907Y-106317415D01*
X72708707Y-106641293D01*
X73032585Y-106907093D01*
X73402094Y-107104599D01*
X73803035Y-107226224D01*
X74220000Y-107267291D01*
X78180000Y-107267291D01*
X78596965Y-107226224D01*
X78997906Y-107104599D01*
X79367415Y-106907093D01*
X79691293Y-106641293D01*
X79957093Y-106317415D01*
X80154599Y-105947906D01*
X80276224Y-105546965D01*
X80317291Y-105130000D01*
X80317291Y-104845512D01*
X87364783Y-104845512D01*
X87406213Y-105125130D01*
X87501397Y-105391292D01*
X87568329Y-105516514D01*
X87812298Y-105588097D01*
X87867709Y-105532686D01*
X87867709Y-105575000D01*
X87908776Y-105991965D01*
X88030401Y-106392906D01*
X88227907Y-106762415D01*
X88493707Y-107086293D01*
X88817585Y-107352093D01*
X89187094Y-107549599D01*
X89588035Y-107671224D01*
X90005000Y-107712291D01*
X91605000Y-107712291D01*
X92021965Y-107671224D01*
X92422906Y-107549599D01*
X92623000Y-107442647D01*
X92623000Y-108714047D01*
X92661011Y-109099981D01*
X92811226Y-109595172D01*
X93055161Y-110051543D01*
X93383443Y-110451557D01*
X93783456Y-110779839D01*
X94239827Y-111023774D01*
X94735018Y-111173989D01*
X95250000Y-111224710D01*
X95764981Y-111173989D01*
X96260172Y-111023774D01*
X96716543Y-110779839D01*
X97116557Y-110451557D01*
X97444839Y-110051544D01*
X97688774Y-109595173D01*
X97838989Y-109099982D01*
X97877000Y-108714048D01*
X97877000Y-105863138D01*
X99063586Y-104676553D01*
X99359550Y-104799145D01*
X100002319Y-104927000D01*
X100657681Y-104927000D01*
X101300450Y-104799145D01*
X101905925Y-104548349D01*
X102450839Y-104184250D01*
X102914250Y-103720839D01*
X103278349Y-103175925D01*
X103529145Y-102570450D01*
X103657000Y-101927681D01*
X103657000Y-101272319D01*
X112243000Y-101272319D01*
X112243000Y-101927681D01*
X112370855Y-102570450D01*
X112621651Y-103175925D01*
X112985750Y-103720839D01*
X113449161Y-104184250D01*
X113994075Y-104548349D01*
X114599550Y-104799145D01*
X115242319Y-104927000D01*
X115897681Y-104927000D01*
X116540450Y-104799145D01*
X117145925Y-104548349D01*
X117690839Y-104184250D01*
X118154250Y-103720839D01*
X118518349Y-103175925D01*
X118769145Y-102570450D01*
X118897000Y-101927681D01*
X118897000Y-101272319D01*
X118769145Y-100629550D01*
X118518349Y-100024075D01*
X118154250Y-99479161D01*
X117690839Y-99015750D01*
X117145925Y-98651651D01*
X116540450Y-98400855D01*
X115897681Y-98273000D01*
X115242319Y-98273000D01*
X114599550Y-98400855D01*
X113994075Y-98651651D01*
X113449161Y-99015750D01*
X112985750Y-99479161D01*
X112621651Y-100024075D01*
X112370855Y-100629550D01*
X112243000Y-101272319D01*
X103657000Y-101272319D01*
X103529145Y-100629550D01*
X103278349Y-100024075D01*
X102914250Y-99479161D01*
X102450839Y-99015750D01*
X101905925Y-98651651D01*
X101300450Y-98400855D01*
X100657681Y-98273000D01*
X100002319Y-98273000D01*
X99359550Y-98400855D01*
X98754075Y-98651651D01*
X98269197Y-98975635D01*
X97910018Y-99011011D01*
X97414827Y-99161226D01*
X96958456Y-99405161D01*
X96558443Y-99733443D01*
X96476179Y-99833682D01*
X93483683Y-102826179D01*
X93427408Y-102872363D01*
X93382093Y-102787585D01*
X93116293Y-102463707D01*
X92792415Y-102197907D01*
X92422906Y-102000401D01*
X92021965Y-101878776D01*
X91605000Y-101837709D01*
X90005000Y-101837709D01*
X89588035Y-101878776D01*
X89187094Y-102000401D01*
X88817585Y-102197907D01*
X88493707Y-102463707D01*
X88227907Y-102787585D01*
X88030401Y-103157094D01*
X87908776Y-103558035D01*
X87867709Y-103975000D01*
X87867709Y-104017314D01*
X87812298Y-103961903D01*
X87568329Y-104033486D01*
X87447429Y-104288996D01*
X87378700Y-104563184D01*
X87364783Y-104845512D01*
X80317291Y-104845512D01*
X80317291Y-103150000D01*
X80276224Y-102733035D01*
X80154599Y-102332094D01*
X79957093Y-101962585D01*
X79691293Y-101638707D01*
X79374983Y-101379118D01*
X79404716Y-101354716D01*
X79794230Y-100880091D01*
X80083666Y-100338596D01*
X80261899Y-99751039D01*
X80322081Y-99140000D01*
X80261899Y-98528961D01*
X80083666Y-97941404D01*
X79794230Y-97399909D01*
X79404716Y-96925284D01*
X79057096Y-96640000D01*
X79404716Y-96354716D01*
X79794230Y-95880091D01*
X80083666Y-95338596D01*
X80261899Y-94751039D01*
X80321096Y-94150000D01*
X137012709Y-94150000D01*
X137012709Y-95850000D01*
X137053776Y-96266965D01*
X137175401Y-96667906D01*
X137372907Y-97037415D01*
X137638707Y-97361293D01*
X137962585Y-97627093D01*
X138332094Y-97824599D01*
X138733035Y-97946224D01*
X139150000Y-97987291D01*
X140850000Y-97987291D01*
X141266965Y-97946224D01*
X141667906Y-97824599D01*
X142037415Y-97627093D01*
X142361293Y-97361293D01*
X142627093Y-97037415D01*
X142824599Y-96667906D01*
X142946224Y-96266965D01*
X142987291Y-95850000D01*
X142987291Y-94150000D01*
X142946224Y-93733035D01*
X142824599Y-93332094D01*
X142627093Y-92962585D01*
X142361293Y-92638707D01*
X142037415Y-92372907D01*
X141667906Y-92175401D01*
X141266965Y-92053776D01*
X140850000Y-92012709D01*
X139150000Y-92012709D01*
X138733035Y-92053776D01*
X138332094Y-92175401D01*
X137962585Y-92372907D01*
X137638707Y-92638707D01*
X137372907Y-92962585D01*
X137175401Y-93332094D01*
X137053776Y-93733035D01*
X137012709Y-94150000D01*
X80321096Y-94150000D01*
X80322081Y-94140000D01*
X80261899Y-93528961D01*
X80083666Y-92941404D01*
X79794230Y-92399909D01*
X79404716Y-91925284D01*
X78930091Y-91535770D01*
X78388596Y-91246334D01*
X77801039Y-91068101D01*
X77343120Y-91023000D01*
X75056880Y-91023000D01*
X74598961Y-91068101D01*
X74011404Y-91246334D01*
X73469909Y-91535770D01*
X72995284Y-91925284D01*
X72605770Y-92399909D01*
X72316334Y-92941404D01*
X72138101Y-93528961D01*
X72077919Y-94140000D01*
X65652000Y-94140000D01*
X65652000Y-84632923D01*
X71273000Y-84632923D01*
X71273000Y-85367077D01*
X71416227Y-86087126D01*
X71697176Y-86765396D01*
X72105050Y-87375824D01*
X72624176Y-87894950D01*
X73234604Y-88302824D01*
X73912874Y-88583773D01*
X74632923Y-88727000D01*
X75367077Y-88727000D01*
X76087126Y-88583773D01*
X76765396Y-88302824D01*
X77375824Y-87894950D01*
X77894950Y-87375824D01*
X78199521Y-86920000D01*
X86407709Y-86920000D01*
X86407709Y-90880000D01*
X86448776Y-91296965D01*
X86570401Y-91697906D01*
X86767907Y-92067415D01*
X87033707Y-92391293D01*
X87357585Y-92657093D01*
X87727094Y-92854599D01*
X88128035Y-92976224D01*
X88545000Y-93017291D01*
X90525000Y-93017291D01*
X90941965Y-92976224D01*
X91342906Y-92854599D01*
X91712415Y-92657093D01*
X92036293Y-92391293D01*
X92302093Y-92067415D01*
X92499599Y-91697906D01*
X92621224Y-91296965D01*
X92662291Y-90880000D01*
X92662291Y-89027000D01*
X92910000Y-89027000D01*
X92910000Y-90017000D01*
X92966000Y-90331582D01*
X93082296Y-90629194D01*
X93254419Y-90898399D01*
X93475754Y-91128852D01*
X93737795Y-91311696D01*
X94030472Y-91439905D01*
X94156135Y-91470218D01*
X94408000Y-91350740D01*
X94408000Y-89027000D01*
X94662000Y-89027000D01*
X94662000Y-91350740D01*
X94913865Y-91470218D01*
X95039528Y-91439905D01*
X95332205Y-91311696D01*
X95594246Y-91128852D01*
X95815581Y-90898399D01*
X95987704Y-90629194D01*
X96104000Y-90331582D01*
X96160000Y-90017000D01*
X96160000Y-89027000D01*
X94662000Y-89027000D01*
X94408000Y-89027000D01*
X92910000Y-89027000D01*
X92662291Y-89027000D01*
X92662291Y-87783000D01*
X92910000Y-87783000D01*
X92910000Y-88773000D01*
X94408000Y-88773000D01*
X94408000Y-86449260D01*
X94662000Y-86449260D01*
X94662000Y-88773000D01*
X96160000Y-88773000D01*
X96160000Y-87783000D01*
X96104000Y-87468418D01*
X95987704Y-87170806D01*
X95827345Y-86920000D01*
X99107709Y-86920000D01*
X99107709Y-90880000D01*
X99148776Y-91296965D01*
X99270401Y-91697906D01*
X99467907Y-92067415D01*
X99733707Y-92391293D01*
X100057585Y-92657093D01*
X100427094Y-92854599D01*
X100828035Y-92976224D01*
X101245000Y-93017291D01*
X103225000Y-93017291D01*
X103641965Y-92976224D01*
X104042906Y-92854599D01*
X104412415Y-92657093D01*
X104736293Y-92391293D01*
X105002093Y-92067415D01*
X105199599Y-91697906D01*
X105321224Y-91296965D01*
X105362291Y-90880000D01*
X105362291Y-89027000D01*
X105610000Y-89027000D01*
X105610000Y-90017000D01*
X105666000Y-90331582D01*
X105782296Y-90629194D01*
X105954419Y-90898399D01*
X106175754Y-91128852D01*
X106437795Y-91311696D01*
X106730472Y-91439905D01*
X106856135Y-91470218D01*
X107108000Y-91350740D01*
X107108000Y-89027000D01*
X107362000Y-89027000D01*
X107362000Y-91350740D01*
X107613865Y-91470218D01*
X107739528Y-91439905D01*
X108032205Y-91311696D01*
X108294246Y-91128852D01*
X108515581Y-90898399D01*
X108687704Y-90629194D01*
X108804000Y-90331582D01*
X108860000Y-90017000D01*
X108860000Y-89027000D01*
X107362000Y-89027000D01*
X107108000Y-89027000D01*
X105610000Y-89027000D01*
X105362291Y-89027000D01*
X105362291Y-87783000D01*
X105610000Y-87783000D01*
X105610000Y-88773000D01*
X107108000Y-88773000D01*
X107108000Y-86449260D01*
X107362000Y-86449260D01*
X107362000Y-88773000D01*
X108860000Y-88773000D01*
X108860000Y-87783000D01*
X108804000Y-87468418D01*
X108687704Y-87170806D01*
X108515581Y-86901601D01*
X108294246Y-86671148D01*
X108032205Y-86488304D01*
X107739528Y-86360095D01*
X107613865Y-86329782D01*
X107362000Y-86449260D01*
X107108000Y-86449260D01*
X106856135Y-86329782D01*
X106730472Y-86360095D01*
X106437795Y-86488304D01*
X106175754Y-86671148D01*
X105954419Y-86901601D01*
X105782296Y-87170806D01*
X105666000Y-87468418D01*
X105610000Y-87783000D01*
X105362291Y-87783000D01*
X105362291Y-86920000D01*
X105321224Y-86503035D01*
X105199599Y-86102094D01*
X105002093Y-85732585D01*
X104736293Y-85408707D01*
X104412415Y-85142907D01*
X104042906Y-84945401D01*
X103641965Y-84823776D01*
X103225000Y-84782709D01*
X101245000Y-84782709D01*
X100828035Y-84823776D01*
X100427094Y-84945401D01*
X100057585Y-85142907D01*
X99733707Y-85408707D01*
X99467907Y-85732585D01*
X99270401Y-86102094D01*
X99148776Y-86503035D01*
X99107709Y-86920000D01*
X95827345Y-86920000D01*
X95815581Y-86901601D01*
X95594246Y-86671148D01*
X95332205Y-86488304D01*
X95039528Y-86360095D01*
X94913865Y-86329782D01*
X94662000Y-86449260D01*
X94408000Y-86449260D01*
X94156135Y-86329782D01*
X94030472Y-86360095D01*
X93737795Y-86488304D01*
X93475754Y-86671148D01*
X93254419Y-86901601D01*
X93082296Y-87170806D01*
X92966000Y-87468418D01*
X92910000Y-87783000D01*
X92662291Y-87783000D01*
X92662291Y-86920000D01*
X92621224Y-86503035D01*
X92499599Y-86102094D01*
X92302093Y-85732585D01*
X92036293Y-85408707D01*
X91712415Y-85142907D01*
X91342906Y-84945401D01*
X90941965Y-84823776D01*
X90525000Y-84782709D01*
X88545000Y-84782709D01*
X88128035Y-84823776D01*
X87727094Y-84945401D01*
X87357585Y-85142907D01*
X87033707Y-85408707D01*
X86767907Y-85732585D01*
X86570401Y-86102094D01*
X86448776Y-86503035D01*
X86407709Y-86920000D01*
X78199521Y-86920000D01*
X78302824Y-86765396D01*
X78583773Y-86087126D01*
X78727000Y-85367077D01*
X78727000Y-84632923D01*
X136273000Y-84632923D01*
X136273000Y-85367077D01*
X136416227Y-86087126D01*
X136697176Y-86765396D01*
X137105050Y-87375824D01*
X137624176Y-87894950D01*
X138234604Y-88302824D01*
X138912874Y-88583773D01*
X139632923Y-88727000D01*
X140367077Y-88727000D01*
X141087126Y-88583773D01*
X141765396Y-88302824D01*
X142375824Y-87894950D01*
X142894950Y-87375824D01*
X143302824Y-86765396D01*
X143583773Y-86087126D01*
X143727000Y-85367077D01*
X143727000Y-84632923D01*
X143583773Y-83912874D01*
X143302824Y-83234604D01*
X142894950Y-82624176D01*
X142375824Y-82105050D01*
X141765396Y-81697176D01*
X141087126Y-81416227D01*
X140367077Y-81273000D01*
X139632923Y-81273000D01*
X138912874Y-81416227D01*
X138234604Y-81697176D01*
X137624176Y-82105050D01*
X137105050Y-82624176D01*
X136697176Y-83234604D01*
X136416227Y-83912874D01*
X136273000Y-84632923D01*
X78727000Y-84632923D01*
X78583773Y-83912874D01*
X78302824Y-83234604D01*
X77894950Y-82624176D01*
X77375824Y-82105050D01*
X76765396Y-81697176D01*
X76087126Y-81416227D01*
X75367077Y-81273000D01*
X74632923Y-81273000D01*
X73912874Y-81416227D01*
X73234604Y-81697176D01*
X72624176Y-82105050D01*
X72105050Y-82624176D01*
X71697176Y-83234604D01*
X71416227Y-83912874D01*
X71273000Y-84632923D01*
X65652000Y-84632923D01*
X65652000Y-79622000D01*
X152788001Y-79622000D01*
X152788000Y-146438000D01*
G37*
X152788000Y-146438000D02*
X65652000Y-146438000D01*
X65652000Y-139632923D01*
X71273000Y-139632923D01*
X71273000Y-140367077D01*
X71416227Y-141087126D01*
X71697176Y-141765396D01*
X72105050Y-142375824D01*
X72624176Y-142894950D01*
X73234604Y-143302824D01*
X73912874Y-143583773D01*
X74632923Y-143727000D01*
X75367077Y-143727000D01*
X76087126Y-143583773D01*
X76765396Y-143302824D01*
X77375824Y-142894950D01*
X77894950Y-142375824D01*
X78302824Y-141765396D01*
X78583773Y-141087126D01*
X78727000Y-140367077D01*
X78727000Y-139632923D01*
X78583773Y-138912874D01*
X78302824Y-138234604D01*
X77894950Y-137624176D01*
X77375824Y-137105050D01*
X76765396Y-136697176D01*
X76087126Y-136416227D01*
X75367077Y-136273000D01*
X74632923Y-136273000D01*
X73912874Y-136416227D01*
X73234604Y-136697176D01*
X72624176Y-137105050D01*
X72105050Y-137624176D01*
X71697176Y-138234604D01*
X71416227Y-138912874D01*
X71273000Y-139632923D01*
X65652000Y-139632923D01*
X65652000Y-136017000D01*
X86165000Y-136017000D01*
X86165000Y-137007000D01*
X86221000Y-137321582D01*
X86337296Y-137619194D01*
X86509419Y-137888399D01*
X86730754Y-138118852D01*
X86992795Y-138301696D01*
X87285472Y-138429905D01*
X87411135Y-138460218D01*
X87663000Y-138340740D01*
X87663000Y-136017000D01*
X87917000Y-136017000D01*
X87917000Y-138340740D01*
X88168865Y-138460218D01*
X88294528Y-138429905D01*
X88587205Y-138301696D01*
X88849246Y-138118852D01*
X89070581Y-137888399D01*
X89242704Y-137619194D01*
X89359000Y-137321582D01*
X89415000Y-137007000D01*
X89415000Y-136017000D01*
X87917000Y-136017000D01*
X87663000Y-136017000D01*
X86165000Y-136017000D01*
X65652000Y-136017000D01*
X65652000Y-134773000D01*
X86165000Y-134773000D01*
X86165000Y-135763000D01*
X87663000Y-135763000D01*
X87663000Y-133439260D01*
X87917000Y-133439260D01*
X87917000Y-135763000D01*
X89415000Y-135763000D01*
X89415000Y-134773000D01*
X89410351Y-134746880D01*
X89673000Y-134746880D01*
X89673000Y-137033119D01*
X89718101Y-137491038D01*
X89896334Y-138078595D01*
X90185770Y-138620090D01*
X90575284Y-139094716D01*
X91049909Y-139484230D01*
X91591404Y-139773666D01*
X92178961Y-139951899D01*
X92790000Y-140012081D01*
X93401038Y-139951899D01*
X93988595Y-139773666D01*
X94530090Y-139484230D01*
X95004716Y-139094716D01*
X95029118Y-139064983D01*
X95288707Y-139381293D01*
X95612585Y-139647093D01*
X95982094Y-139844599D01*
X96383035Y-139966224D01*
X96800000Y-140007291D01*
X98780000Y-140007291D01*
X99196965Y-139966224D01*
X99597906Y-139844599D01*
X99967415Y-139647093D01*
X100291293Y-139381293D01*
X100557093Y-139057415D01*
X100754599Y-138687906D01*
X100876224Y-138286965D01*
X100917291Y-137870000D01*
X100917291Y-136017000D01*
X103945000Y-136017000D01*
X103945000Y-137007000D01*
X104001000Y-137321582D01*
X104117296Y-137619194D01*
X104289419Y-137888399D01*
X104510754Y-138118852D01*
X104772795Y-138301696D01*
X105065472Y-138429905D01*
X105191135Y-138460218D01*
X105443000Y-138340740D01*
X105443000Y-136017000D01*
X105697000Y-136017000D01*
X105697000Y-138340740D01*
X105948865Y-138460218D01*
X106074528Y-138429905D01*
X106367205Y-138301696D01*
X106629246Y-138118852D01*
X106850581Y-137888399D01*
X107022704Y-137619194D01*
X107139000Y-137321582D01*
X107195000Y-137007000D01*
X107195000Y-136017000D01*
X105697000Y-136017000D01*
X105443000Y-136017000D01*
X103945000Y-136017000D01*
X100917291Y-136017000D01*
X100917291Y-134773000D01*
X103945000Y-134773000D01*
X103945000Y-135763000D01*
X105443000Y-135763000D01*
X105443000Y-133439260D01*
X105697000Y-133439260D01*
X105697000Y-135763000D01*
X107195000Y-135763000D01*
X107195000Y-134773000D01*
X107190351Y-134746880D01*
X107453000Y-134746880D01*
X107453000Y-137033119D01*
X107498101Y-137491038D01*
X107676334Y-138078595D01*
X107965770Y-138620090D01*
X108355284Y-139094716D01*
X108829909Y-139484230D01*
X109371404Y-139773666D01*
X109958961Y-139951899D01*
X110570000Y-140012081D01*
X111181038Y-139951899D01*
X111768595Y-139773666D01*
X112310090Y-139484230D01*
X112784716Y-139094716D01*
X112809118Y-139064983D01*
X113068707Y-139381293D01*
X113392585Y-139647093D01*
X113762094Y-139844599D01*
X114163035Y-139966224D01*
X114580000Y-140007291D01*
X116560000Y-140007291D01*
X116976965Y-139966224D01*
X117377906Y-139844599D01*
X117747415Y-139647093D01*
X117764681Y-139632923D01*
X136273000Y-139632923D01*
X136273000Y-140367077D01*
X136416227Y-141087126D01*
X136697176Y-141765396D01*
X137105050Y-142375824D01*
X137624176Y-142894950D01*
X138234604Y-143302824D01*
X138912874Y-143583773D01*
X139632923Y-143727000D01*
X140367077Y-143727000D01*
X141087126Y-143583773D01*
X141765396Y-143302824D01*
X142375824Y-142894950D01*
X142894950Y-142375824D01*
X143302824Y-141765396D01*
X143583773Y-141087126D01*
X143727000Y-140367077D01*
X143727000Y-139632923D01*
X143583773Y-138912874D01*
X143302824Y-138234604D01*
X142894950Y-137624176D01*
X142375824Y-137105050D01*
X141765396Y-136697176D01*
X141087126Y-136416227D01*
X140367077Y-136273000D01*
X139632923Y-136273000D01*
X138912874Y-136416227D01*
X138234604Y-136697176D01*
X137624176Y-137105050D01*
X137105050Y-137624176D01*
X136697176Y-138234604D01*
X136416227Y-138912874D01*
X136273000Y-139632923D01*
X117764681Y-139632923D01*
X118071293Y-139381293D01*
X118337093Y-139057415D01*
X118534599Y-138687906D01*
X118656224Y-138286965D01*
X118697291Y-137870000D01*
X118697291Y-135779645D01*
X121622305Y-135779645D01*
X121669886Y-135964025D01*
X121822122Y-136301653D01*
X122037301Y-136603094D01*
X122307153Y-136856763D01*
X122621309Y-137052912D01*
X122967695Y-137184004D01*
X123333000Y-137245000D01*
X124333000Y-137245000D01*
X124333000Y-135487000D01*
X124587000Y-135487000D01*
X124587000Y-137245000D01*
X125587000Y-137245000D01*
X125952305Y-137184004D01*
X126298691Y-137052912D01*
X126612847Y-136856763D01*
X126882699Y-136603094D01*
X127097878Y-136301653D01*
X127250114Y-135964025D01*
X127297695Y-135779645D01*
X127181572Y-135487000D01*
X124587000Y-135487000D01*
X124333000Y-135487000D01*
X121738428Y-135487000D01*
X121622305Y-135779645D01*
X118697291Y-135779645D01*
X118697291Y-134940355D01*
X121622305Y-134940355D01*
X121738428Y-135233000D01*
X124333000Y-135233000D01*
X124333000Y-133475000D01*
X124587000Y-133475000D01*
X124587000Y-135233000D01*
X127181572Y-135233000D01*
X127297695Y-134940355D01*
X127250114Y-134755975D01*
X127097878Y-134418347D01*
X126882699Y-134116906D01*
X126612847Y-133863237D01*
X126298691Y-133667088D01*
X125952305Y-133535996D01*
X125587000Y-133475000D01*
X124587000Y-133475000D01*
X124333000Y-133475000D01*
X123333000Y-133475000D01*
X122967695Y-133535996D01*
X122621309Y-133667088D01*
X122307153Y-133863237D01*
X122037301Y-134116906D01*
X121822122Y-134418347D01*
X121669886Y-134755975D01*
X121622305Y-134940355D01*
X118697291Y-134940355D01*
X118697291Y-133910000D01*
X118656224Y-133493035D01*
X118534599Y-133092094D01*
X118337093Y-132722585D01*
X118071293Y-132398707D01*
X117747415Y-132132907D01*
X117377906Y-131935401D01*
X116976965Y-131813776D01*
X116560000Y-131772709D01*
X114580000Y-131772709D01*
X114163035Y-131813776D01*
X113762094Y-131935401D01*
X113392585Y-132132907D01*
X113068707Y-132398707D01*
X112809118Y-132715017D01*
X112784716Y-132685284D01*
X112310091Y-132295770D01*
X111768596Y-132006334D01*
X111181039Y-131828101D01*
X110570000Y-131767919D01*
X109958962Y-131828101D01*
X109371405Y-132006334D01*
X108829910Y-132295770D01*
X108355285Y-132685284D01*
X107965770Y-133159909D01*
X107676334Y-133701404D01*
X107498101Y-134288961D01*
X107453000Y-134746880D01*
X107190351Y-134746880D01*
X107139000Y-134458418D01*
X107022704Y-134160806D01*
X106850581Y-133891601D01*
X106629246Y-133661148D01*
X106367205Y-133478304D01*
X106074528Y-133350095D01*
X105948865Y-133319782D01*
X105697000Y-133439260D01*
X105443000Y-133439260D01*
X105191135Y-133319782D01*
X105065472Y-133350095D01*
X104772795Y-133478304D01*
X104510754Y-133661148D01*
X104289419Y-133891601D01*
X104117296Y-134160806D01*
X104001000Y-134458418D01*
X103945000Y-134773000D01*
X100917291Y-134773000D01*
X100917291Y-133910000D01*
X100876224Y-133493035D01*
X100754599Y-133092094D01*
X100557093Y-132722585D01*
X100291293Y-132398707D01*
X99967415Y-132132907D01*
X99597906Y-131935401D01*
X99196965Y-131813776D01*
X98780000Y-131772709D01*
X96800000Y-131772709D01*
X96383035Y-131813776D01*
X95982094Y-131935401D01*
X95612585Y-132132907D01*
X95288707Y-132398707D01*
X95029118Y-132715017D01*
X95004716Y-132685284D01*
X94530091Y-132295770D01*
X93988596Y-132006334D01*
X93401039Y-131828101D01*
X92790000Y-131767919D01*
X92178962Y-131828101D01*
X91591405Y-132006334D01*
X91049910Y-132295770D01*
X90575285Y-132685284D01*
X90185770Y-133159909D01*
X89896334Y-133701404D01*
X89718101Y-134288961D01*
X89673000Y-134746880D01*
X89410351Y-134746880D01*
X89359000Y-134458418D01*
X89242704Y-134160806D01*
X89070581Y-133891601D01*
X88849246Y-133661148D01*
X88587205Y-133478304D01*
X88294528Y-133350095D01*
X88168865Y-133319782D01*
X87917000Y-133439260D01*
X87663000Y-133439260D01*
X87411135Y-133319782D01*
X87285472Y-133350095D01*
X86992795Y-133478304D01*
X86730754Y-133661148D01*
X86509419Y-133891601D01*
X86337296Y-134160806D01*
X86221000Y-134458418D01*
X86165000Y-134773000D01*
X65652000Y-134773000D01*
X65652000Y-124540000D01*
X72077919Y-124540000D01*
X72138101Y-125151039D01*
X72316334Y-125738596D01*
X72605770Y-126280091D01*
X72995284Y-126754716D01*
X73025017Y-126779118D01*
X72708707Y-127038707D01*
X72442907Y-127362585D01*
X72245401Y-127732094D01*
X72123776Y-128133035D01*
X72082709Y-128550000D01*
X72082709Y-130530000D01*
X72123776Y-130946965D01*
X72245401Y-131347906D01*
X72442907Y-131717415D01*
X72708707Y-132041293D01*
X73032585Y-132307093D01*
X73402094Y-132504599D01*
X73803035Y-132626224D01*
X74220000Y-132667291D01*
X78180000Y-132667291D01*
X78596965Y-132626224D01*
X78997906Y-132504599D01*
X79367415Y-132307093D01*
X79691293Y-132041293D01*
X79957093Y-131717415D01*
X80154599Y-131347906D01*
X80276224Y-130946965D01*
X80317291Y-130530000D01*
X80317291Y-128550000D01*
X80276224Y-128133035D01*
X80154599Y-127732094D01*
X79957093Y-127362585D01*
X79691293Y-127038707D01*
X79374983Y-126779118D01*
X79404716Y-126754716D01*
X79794230Y-126280091D01*
X80083666Y-125738596D01*
X80261899Y-125151039D01*
X80322081Y-124540000D01*
X80281928Y-124132319D01*
X95733000Y-124132319D01*
X95733000Y-124787681D01*
X95860855Y-125430450D01*
X96111651Y-126035925D01*
X96475750Y-126580839D01*
X96939161Y-127044250D01*
X97484075Y-127408349D01*
X98089550Y-127659145D01*
X98732319Y-127787000D01*
X99387681Y-127787000D01*
X100030450Y-127659145D01*
X100635925Y-127408349D01*
X101180839Y-127044250D01*
X101644250Y-126580839D01*
X102008349Y-126035925D01*
X102259145Y-125430450D01*
X102387000Y-124787681D01*
X102387000Y-124132319D01*
X102259145Y-123489550D01*
X102008349Y-122884075D01*
X101644250Y-122339161D01*
X101180839Y-121875750D01*
X100635925Y-121511651D01*
X100030450Y-121260855D01*
X99387681Y-121133000D01*
X98732319Y-121133000D01*
X98089550Y-121260855D01*
X97484075Y-121511651D01*
X96939161Y-121875750D01*
X96475750Y-122339161D01*
X96111651Y-122884075D01*
X95860855Y-123489550D01*
X95733000Y-124132319D01*
X80281928Y-124132319D01*
X80261899Y-123928961D01*
X80083666Y-123341404D01*
X79794230Y-122799909D01*
X79404716Y-122325284D01*
X78930091Y-121935770D01*
X78388596Y-121646334D01*
X77801039Y-121468101D01*
X77343120Y-121423000D01*
X75056880Y-121423000D01*
X74598961Y-121468101D01*
X74011404Y-121646334D01*
X73469909Y-121935770D01*
X72995284Y-122325284D01*
X72605770Y-122799909D01*
X72316334Y-123341404D01*
X72138101Y-123928961D01*
X72077919Y-124540000D01*
X65652000Y-124540000D01*
X65652000Y-111840000D01*
X72077919Y-111840000D01*
X72138101Y-112451039D01*
X72316334Y-113038596D01*
X72605770Y-113580091D01*
X72995284Y-114054716D01*
X73025017Y-114079118D01*
X72708707Y-114338707D01*
X72442907Y-114662585D01*
X72245401Y-115032094D01*
X72123776Y-115433035D01*
X72082709Y-115850000D01*
X72082709Y-117830000D01*
X72123776Y-118246965D01*
X72245401Y-118647906D01*
X72442907Y-119017415D01*
X72708707Y-119341293D01*
X73032585Y-119607093D01*
X73402094Y-119804599D01*
X73803035Y-119926224D01*
X74220000Y-119967291D01*
X78180000Y-119967291D01*
X78596965Y-119926224D01*
X78997906Y-119804599D01*
X79367415Y-119607093D01*
X79691293Y-119341293D01*
X79957093Y-119017415D01*
X80154599Y-118647906D01*
X80276224Y-118246965D01*
X80317291Y-117830000D01*
X80317291Y-117310000D01*
X98662709Y-117310000D01*
X98662709Y-118910000D01*
X98703776Y-119326965D01*
X98825401Y-119727906D01*
X99022907Y-120097415D01*
X99288707Y-120421293D01*
X99612585Y-120687093D01*
X99982094Y-120884599D01*
X100383035Y-121006224D01*
X100800000Y-121047291D01*
X102400000Y-121047291D01*
X102816965Y-121006224D01*
X102943001Y-120967991D01*
X102943000Y-125179470D01*
X102883000Y-125481112D01*
X102883000Y-125978888D01*
X102980111Y-126467099D01*
X103170602Y-126926983D01*
X103447151Y-127340869D01*
X103799131Y-127692849D01*
X104213017Y-127969398D01*
X104672901Y-128159889D01*
X105161112Y-128257000D01*
X105658888Y-128257000D01*
X106147099Y-128159889D01*
X106325179Y-128086125D01*
X106580172Y-128008774D01*
X107036543Y-127764839D01*
X107436557Y-127436557D01*
X107764839Y-127036544D01*
X108008774Y-126580173D01*
X108158989Y-126084982D01*
X108197000Y-125699048D01*
X108197000Y-124132319D01*
X110973000Y-124132319D01*
X110973000Y-124787681D01*
X111100855Y-125430450D01*
X111351651Y-126035925D01*
X111715750Y-126580839D01*
X112179161Y-127044250D01*
X112724075Y-127408349D01*
X113329550Y-127659145D01*
X113972319Y-127787000D01*
X114627681Y-127787000D01*
X115270450Y-127659145D01*
X115875925Y-127408349D01*
X116356859Y-127087000D01*
X120588496Y-127087000D01*
X120698707Y-127221293D01*
X121022585Y-127487093D01*
X121062881Y-127508632D01*
X121060547Y-127510547D01*
X120638542Y-128024762D01*
X120324964Y-128611425D01*
X120131863Y-129247992D01*
X120066661Y-129910000D01*
X120131863Y-130572008D01*
X120324964Y-131208575D01*
X120638542Y-131795238D01*
X121060547Y-132309453D01*
X121574762Y-132731458D01*
X122161425Y-133045036D01*
X122797992Y-133238137D01*
X123294107Y-133287000D01*
X125625893Y-133287000D01*
X126122008Y-133238137D01*
X126758575Y-133045036D01*
X127345238Y-132731458D01*
X127859453Y-132309453D01*
X128281458Y-131795238D01*
X128595036Y-131208575D01*
X128788137Y-130572008D01*
X128853339Y-129910000D01*
X128788137Y-129247992D01*
X128595036Y-128611425D01*
X128281458Y-128024762D01*
X127859453Y-127510547D01*
X127857119Y-127508632D01*
X127897415Y-127487093D01*
X128221293Y-127221293D01*
X128487093Y-126897415D01*
X128684599Y-126527906D01*
X128806224Y-126126965D01*
X128847291Y-125710000D01*
X128847291Y-123210000D01*
X128806224Y-122793035D01*
X128684599Y-122392094D01*
X128487093Y-122022585D01*
X128221293Y-121698707D01*
X127897415Y-121432907D01*
X127527906Y-121235401D01*
X127126965Y-121113776D01*
X126710000Y-121072709D01*
X122210000Y-121072709D01*
X121793035Y-121113776D01*
X121392094Y-121235401D01*
X121022585Y-121432907D01*
X120698707Y-121698707D01*
X120588496Y-121833000D01*
X116356859Y-121833000D01*
X115875925Y-121511651D01*
X115270450Y-121260855D01*
X114627681Y-121133000D01*
X113972319Y-121133000D01*
X113329550Y-121260855D01*
X112724075Y-121511651D01*
X112179161Y-121875750D01*
X111715750Y-122339161D01*
X111351651Y-122884075D01*
X111100855Y-123489550D01*
X110973000Y-124132319D01*
X108197000Y-124132319D01*
X108197000Y-121749970D01*
X109532077Y-120395413D01*
X132394192Y-120395413D01*
X132489956Y-120659814D01*
X132779571Y-120800704D01*
X133091108Y-120882384D01*
X133412595Y-120901718D01*
X133731675Y-120857961D01*
X134036088Y-120752795D01*
X134210044Y-120659814D01*
X134305808Y-120395413D01*
X133350000Y-119439605D01*
X132394192Y-120395413D01*
X109532077Y-120395413D01*
X110589468Y-119322595D01*
X131708282Y-119322595D01*
X131752039Y-119641675D01*
X131857205Y-119946088D01*
X131950186Y-120120044D01*
X132214587Y-120215808D01*
X133170395Y-119260000D01*
X133529605Y-119260000D01*
X134485413Y-120215808D01*
X134749814Y-120120044D01*
X134890704Y-119830429D01*
X134972384Y-119518892D01*
X134991718Y-119197405D01*
X134947961Y-118878325D01*
X134842795Y-118573912D01*
X134749814Y-118399956D01*
X134485413Y-118304192D01*
X133529605Y-119260000D01*
X133170395Y-119260000D01*
X132214587Y-118304192D01*
X131950186Y-118399956D01*
X131809296Y-118689571D01*
X131727616Y-119001108D01*
X131708282Y-119322595D01*
X110589468Y-119322595D01*
X111770248Y-118124587D01*
X132394192Y-118124587D01*
X133350000Y-119080395D01*
X134305808Y-118124587D01*
X134210044Y-117860186D01*
X133920429Y-117719296D01*
X133608892Y-117637616D01*
X133287405Y-117618282D01*
X132968325Y-117662039D01*
X132663912Y-117767205D01*
X132489956Y-117860186D01*
X132394192Y-118124587D01*
X111770248Y-118124587D01*
X112820644Y-117058865D01*
X141574782Y-117058865D01*
X141605095Y-117184528D01*
X141733304Y-117477205D01*
X141916148Y-117739246D01*
X142146601Y-117960581D01*
X142415806Y-118132704D01*
X142713418Y-118249000D01*
X143028000Y-118305000D01*
X144018000Y-118305000D01*
X144018000Y-116807000D01*
X144272000Y-116807000D01*
X144272000Y-118305000D01*
X145262000Y-118305000D01*
X145576582Y-118249000D01*
X145874194Y-118132704D01*
X146143399Y-117960581D01*
X146373852Y-117739246D01*
X146556696Y-117477205D01*
X146684905Y-117184528D01*
X146715218Y-117058865D01*
X146595740Y-116807000D01*
X144272000Y-116807000D01*
X144018000Y-116807000D01*
X141694260Y-116807000D01*
X141574782Y-117058865D01*
X112820644Y-117058865D01*
X113567477Y-116301135D01*
X141574782Y-116301135D01*
X141694260Y-116553000D01*
X144018000Y-116553000D01*
X144018000Y-115055000D01*
X144272000Y-115055000D01*
X144272000Y-116553000D01*
X146595740Y-116553000D01*
X146715218Y-116301135D01*
X146684905Y-116175472D01*
X146556696Y-115882795D01*
X146373852Y-115620754D01*
X146143399Y-115399419D01*
X145874194Y-115227296D01*
X145576582Y-115111000D01*
X145262000Y-115055000D01*
X144272000Y-115055000D01*
X144018000Y-115055000D01*
X143028000Y-115055000D01*
X142713418Y-115111000D01*
X142415806Y-115227296D01*
X142146601Y-115399419D01*
X141916148Y-115620754D01*
X141733304Y-115882795D01*
X141605095Y-116175472D01*
X141574782Y-116301135D01*
X113567477Y-116301135D01*
X119974368Y-109800770D01*
X121354470Y-108420669D01*
X121457227Y-108505000D01*
X121060547Y-108830547D01*
X120638542Y-109344762D01*
X120324964Y-109931425D01*
X120131863Y-110567992D01*
X120066661Y-111230000D01*
X120131863Y-111892008D01*
X120324964Y-112528575D01*
X120638542Y-113115238D01*
X121060547Y-113629453D01*
X121574762Y-114051458D01*
X122161425Y-114365036D01*
X122797992Y-114558137D01*
X123294107Y-114607000D01*
X125625893Y-114607000D01*
X126122008Y-114558137D01*
X126758575Y-114365036D01*
X127345238Y-114051458D01*
X127859453Y-113629453D01*
X128281458Y-113115238D01*
X128595036Y-112528575D01*
X128788137Y-111892008D01*
X128831472Y-111452017D01*
X130223000Y-111452017D01*
X130223000Y-112067983D01*
X130343169Y-112672112D01*
X130578889Y-113241190D01*
X130921101Y-113753346D01*
X131356654Y-114188899D01*
X131868810Y-114531111D01*
X132437888Y-114766831D01*
X133042017Y-114887000D01*
X133657983Y-114887000D01*
X134262112Y-114766831D01*
X134831190Y-114531111D01*
X135343346Y-114188899D01*
X135778899Y-113753346D01*
X136121111Y-113241190D01*
X136356831Y-112672112D01*
X136477000Y-112067983D01*
X136477000Y-111680000D01*
X140022919Y-111680000D01*
X140083101Y-112291039D01*
X140261334Y-112878596D01*
X140550770Y-113420091D01*
X140940284Y-113894716D01*
X141414909Y-114284230D01*
X141956404Y-114573666D01*
X142543961Y-114751899D01*
X143001880Y-114797000D01*
X145288120Y-114797000D01*
X145746039Y-114751899D01*
X146333596Y-114573666D01*
X146875091Y-114284230D01*
X147349716Y-113894716D01*
X147739230Y-113420091D01*
X148028666Y-112878596D01*
X148206899Y-112291039D01*
X148267081Y-111680000D01*
X148206899Y-111068961D01*
X148028666Y-110481404D01*
X147739230Y-109939909D01*
X147349716Y-109465284D01*
X147319983Y-109440882D01*
X147636293Y-109181293D01*
X147902093Y-108857415D01*
X148099599Y-108487906D01*
X148221224Y-108086965D01*
X148262291Y-107670000D01*
X148262291Y-105690000D01*
X148221224Y-105273035D01*
X148099599Y-104872094D01*
X147902093Y-104502585D01*
X147636293Y-104178707D01*
X147312415Y-103912907D01*
X146942906Y-103715401D01*
X146541965Y-103593776D01*
X146125000Y-103552709D01*
X142165000Y-103552709D01*
X141748035Y-103593776D01*
X141347094Y-103715401D01*
X140977585Y-103912907D01*
X140653707Y-104178707D01*
X140387907Y-104502585D01*
X140190401Y-104872094D01*
X140068776Y-105273035D01*
X140027709Y-105690000D01*
X140027709Y-107670000D01*
X140068776Y-108086965D01*
X140190401Y-108487906D01*
X140387907Y-108857415D01*
X140653707Y-109181293D01*
X140970017Y-109440882D01*
X140940284Y-109465284D01*
X140550770Y-109939909D01*
X140261334Y-110481404D01*
X140083101Y-111068961D01*
X140022919Y-111680000D01*
X136477000Y-111680000D01*
X136477000Y-111452017D01*
X136356831Y-110847888D01*
X136121111Y-110278810D01*
X135778899Y-109766654D01*
X135343346Y-109331101D01*
X134831190Y-108988889D01*
X134262112Y-108753169D01*
X133657983Y-108633000D01*
X133042017Y-108633000D01*
X132437888Y-108753169D01*
X131868810Y-108988889D01*
X131356654Y-109331101D01*
X130921101Y-109766654D01*
X130578889Y-110278810D01*
X130343169Y-110847888D01*
X130223000Y-111452017D01*
X128831472Y-111452017D01*
X128853339Y-111230000D01*
X128788137Y-110567992D01*
X128595036Y-109931425D01*
X128281458Y-109344762D01*
X127859453Y-108830547D01*
X127462773Y-108505000D01*
X127859453Y-108179453D01*
X128281458Y-107665238D01*
X128595036Y-107078575D01*
X128788137Y-106442008D01*
X128853339Y-105780000D01*
X128788137Y-105117992D01*
X128595036Y-104481425D01*
X128281458Y-103894762D01*
X127859453Y-103380547D01*
X127857119Y-103378632D01*
X127897415Y-103357093D01*
X128221293Y-103091293D01*
X128487093Y-102767415D01*
X128684599Y-102397906D01*
X128806224Y-101996965D01*
X128847291Y-101580000D01*
X128847291Y-99080000D01*
X128806224Y-98663035D01*
X128684599Y-98262094D01*
X128487093Y-97892585D01*
X128221293Y-97568707D01*
X127897415Y-97302907D01*
X127527906Y-97105401D01*
X127126965Y-96983776D01*
X126710000Y-96942709D01*
X122210000Y-96942709D01*
X121793035Y-96983776D01*
X121392094Y-97105401D01*
X121022585Y-97302907D01*
X120698707Y-97568707D01*
X120432907Y-97892585D01*
X120235401Y-98262094D01*
X120113776Y-98663035D01*
X120072709Y-99080000D01*
X120072709Y-101580000D01*
X120113776Y-101996965D01*
X120235401Y-102397906D01*
X120432907Y-102767415D01*
X120698707Y-103091293D01*
X120773897Y-103153000D01*
X120409037Y-103153000D01*
X120279999Y-103140291D01*
X120150962Y-103153000D01*
X120150952Y-103153000D01*
X119765018Y-103191011D01*
X119269827Y-103341226D01*
X118813456Y-103585161D01*
X118413443Y-103913443D01*
X118331179Y-104013682D01*
X116336943Y-106007919D01*
X116329614Y-106014023D01*
X116245656Y-106099206D01*
X116161180Y-106183682D01*
X116155136Y-106191047D01*
X104537291Y-117978398D01*
X104537291Y-117310000D01*
X104496224Y-116893035D01*
X104374599Y-116492094D01*
X104177093Y-116122585D01*
X103911293Y-115798707D01*
X103587415Y-115532907D01*
X103395693Y-115430430D01*
X103465854Y-115383550D01*
X103873550Y-114975854D01*
X104193874Y-114496455D01*
X104414518Y-113963775D01*
X104527000Y-113398284D01*
X104527000Y-112821716D01*
X104414518Y-112256225D01*
X104193874Y-111723545D01*
X103873550Y-111244146D01*
X103465854Y-110836450D01*
X102986455Y-110516126D01*
X102453775Y-110295482D01*
X101888284Y-110183000D01*
X101311716Y-110183000D01*
X100746225Y-110295482D01*
X100213545Y-110516126D01*
X99734146Y-110836450D01*
X99326450Y-111244146D01*
X99006126Y-111723545D01*
X98785482Y-112256225D01*
X98673000Y-112821716D01*
X98673000Y-113398284D01*
X98785482Y-113963775D01*
X99006126Y-114496455D01*
X99326450Y-114975854D01*
X99734146Y-115383550D01*
X99804307Y-115430430D01*
X99612585Y-115532907D01*
X99288707Y-115798707D01*
X99022907Y-116122585D01*
X98825401Y-116492094D01*
X98703776Y-116893035D01*
X98662709Y-117310000D01*
X80317291Y-117310000D01*
X80317291Y-115850000D01*
X80276224Y-115433035D01*
X80154599Y-115032094D01*
X79957093Y-114662585D01*
X79691293Y-114338707D01*
X79374983Y-114079118D01*
X79404716Y-114054716D01*
X79794230Y-113580091D01*
X80083666Y-113038596D01*
X80261899Y-112451039D01*
X80322081Y-111840000D01*
X80261899Y-111228961D01*
X80083666Y-110641404D01*
X79794230Y-110099909D01*
X79404716Y-109625284D01*
X78930091Y-109235770D01*
X78388596Y-108946334D01*
X77801039Y-108768101D01*
X77343120Y-108723000D01*
X75056880Y-108723000D01*
X74598961Y-108768101D01*
X74011404Y-108946334D01*
X73469909Y-109235770D01*
X72995284Y-109625284D01*
X72605770Y-110099909D01*
X72316334Y-110641404D01*
X72138101Y-111228961D01*
X72077919Y-111840000D01*
X65652000Y-111840000D01*
X65652000Y-94140000D01*
X72077919Y-94140000D01*
X72138101Y-94751039D01*
X72316334Y-95338596D01*
X72605770Y-95880091D01*
X72995284Y-96354716D01*
X73342904Y-96640000D01*
X72995284Y-96925284D01*
X72605770Y-97399909D01*
X72316334Y-97941404D01*
X72138101Y-98528961D01*
X72077919Y-99140000D01*
X72138101Y-99751039D01*
X72316334Y-100338596D01*
X72605770Y-100880091D01*
X72995284Y-101354716D01*
X73025017Y-101379118D01*
X72708707Y-101638707D01*
X72442907Y-101962585D01*
X72245401Y-102332094D01*
X72123776Y-102733035D01*
X72082709Y-103150000D01*
X72082709Y-105130000D01*
X72123776Y-105546965D01*
X72245401Y-105947906D01*
X72442907Y-106317415D01*
X72708707Y-106641293D01*
X73032585Y-106907093D01*
X73402094Y-107104599D01*
X73803035Y-107226224D01*
X74220000Y-107267291D01*
X78180000Y-107267291D01*
X78596965Y-107226224D01*
X78997906Y-107104599D01*
X79367415Y-106907093D01*
X79691293Y-106641293D01*
X79957093Y-106317415D01*
X80154599Y-105947906D01*
X80276224Y-105546965D01*
X80317291Y-105130000D01*
X80317291Y-104845512D01*
X87364783Y-104845512D01*
X87406213Y-105125130D01*
X87501397Y-105391292D01*
X87568329Y-105516514D01*
X87812298Y-105588097D01*
X87867709Y-105532686D01*
X87867709Y-105575000D01*
X87908776Y-105991965D01*
X88030401Y-106392906D01*
X88227907Y-106762415D01*
X88493707Y-107086293D01*
X88817585Y-107352093D01*
X89187094Y-107549599D01*
X89588035Y-107671224D01*
X90005000Y-107712291D01*
X91605000Y-107712291D01*
X92021965Y-107671224D01*
X92422906Y-107549599D01*
X92623000Y-107442647D01*
X92623000Y-108714047D01*
X92661011Y-109099981D01*
X92811226Y-109595172D01*
X93055161Y-110051543D01*
X93383443Y-110451557D01*
X93783456Y-110779839D01*
X94239827Y-111023774D01*
X94735018Y-111173989D01*
X95250000Y-111224710D01*
X95764981Y-111173989D01*
X96260172Y-111023774D01*
X96716543Y-110779839D01*
X97116557Y-110451557D01*
X97444839Y-110051544D01*
X97688774Y-109595173D01*
X97838989Y-109099982D01*
X97877000Y-108714048D01*
X97877000Y-105863138D01*
X99063586Y-104676553D01*
X99359550Y-104799145D01*
X100002319Y-104927000D01*
X100657681Y-104927000D01*
X101300450Y-104799145D01*
X101905925Y-104548349D01*
X102450839Y-104184250D01*
X102914250Y-103720839D01*
X103278349Y-103175925D01*
X103529145Y-102570450D01*
X103657000Y-101927681D01*
X103657000Y-101272319D01*
X112243000Y-101272319D01*
X112243000Y-101927681D01*
X112370855Y-102570450D01*
X112621651Y-103175925D01*
X112985750Y-103720839D01*
X113449161Y-104184250D01*
X113994075Y-104548349D01*
X114599550Y-104799145D01*
X115242319Y-104927000D01*
X115897681Y-104927000D01*
X116540450Y-104799145D01*
X117145925Y-104548349D01*
X117690839Y-104184250D01*
X118154250Y-103720839D01*
X118518349Y-103175925D01*
X118769145Y-102570450D01*
X118897000Y-101927681D01*
X118897000Y-101272319D01*
X118769145Y-100629550D01*
X118518349Y-100024075D01*
X118154250Y-99479161D01*
X117690839Y-99015750D01*
X117145925Y-98651651D01*
X116540450Y-98400855D01*
X115897681Y-98273000D01*
X115242319Y-98273000D01*
X114599550Y-98400855D01*
X113994075Y-98651651D01*
X113449161Y-99015750D01*
X112985750Y-99479161D01*
X112621651Y-100024075D01*
X112370855Y-100629550D01*
X112243000Y-101272319D01*
X103657000Y-101272319D01*
X103529145Y-100629550D01*
X103278349Y-100024075D01*
X102914250Y-99479161D01*
X102450839Y-99015750D01*
X101905925Y-98651651D01*
X101300450Y-98400855D01*
X100657681Y-98273000D01*
X100002319Y-98273000D01*
X99359550Y-98400855D01*
X98754075Y-98651651D01*
X98269197Y-98975635D01*
X97910018Y-99011011D01*
X97414827Y-99161226D01*
X96958456Y-99405161D01*
X96558443Y-99733443D01*
X96476179Y-99833682D01*
X93483683Y-102826179D01*
X93427408Y-102872363D01*
X93382093Y-102787585D01*
X93116293Y-102463707D01*
X92792415Y-102197907D01*
X92422906Y-102000401D01*
X92021965Y-101878776D01*
X91605000Y-101837709D01*
X90005000Y-101837709D01*
X89588035Y-101878776D01*
X89187094Y-102000401D01*
X88817585Y-102197907D01*
X88493707Y-102463707D01*
X88227907Y-102787585D01*
X88030401Y-103157094D01*
X87908776Y-103558035D01*
X87867709Y-103975000D01*
X87867709Y-104017314D01*
X87812298Y-103961903D01*
X87568329Y-104033486D01*
X87447429Y-104288996D01*
X87378700Y-104563184D01*
X87364783Y-104845512D01*
X80317291Y-104845512D01*
X80317291Y-103150000D01*
X80276224Y-102733035D01*
X80154599Y-102332094D01*
X79957093Y-101962585D01*
X79691293Y-101638707D01*
X79374983Y-101379118D01*
X79404716Y-101354716D01*
X79794230Y-100880091D01*
X80083666Y-100338596D01*
X80261899Y-99751039D01*
X80322081Y-99140000D01*
X80261899Y-98528961D01*
X80083666Y-97941404D01*
X79794230Y-97399909D01*
X79404716Y-96925284D01*
X79057096Y-96640000D01*
X79404716Y-96354716D01*
X79794230Y-95880091D01*
X80083666Y-95338596D01*
X80261899Y-94751039D01*
X80321096Y-94150000D01*
X137012709Y-94150000D01*
X137012709Y-95850000D01*
X137053776Y-96266965D01*
X137175401Y-96667906D01*
X137372907Y-97037415D01*
X137638707Y-97361293D01*
X137962585Y-97627093D01*
X138332094Y-97824599D01*
X138733035Y-97946224D01*
X139150000Y-97987291D01*
X140850000Y-97987291D01*
X141266965Y-97946224D01*
X141667906Y-97824599D01*
X142037415Y-97627093D01*
X142361293Y-97361293D01*
X142627093Y-97037415D01*
X142824599Y-96667906D01*
X142946224Y-96266965D01*
X142987291Y-95850000D01*
X142987291Y-94150000D01*
X142946224Y-93733035D01*
X142824599Y-93332094D01*
X142627093Y-92962585D01*
X142361293Y-92638707D01*
X142037415Y-92372907D01*
X141667906Y-92175401D01*
X141266965Y-92053776D01*
X140850000Y-92012709D01*
X139150000Y-92012709D01*
X138733035Y-92053776D01*
X138332094Y-92175401D01*
X137962585Y-92372907D01*
X137638707Y-92638707D01*
X137372907Y-92962585D01*
X137175401Y-93332094D01*
X137053776Y-93733035D01*
X137012709Y-94150000D01*
X80321096Y-94150000D01*
X80322081Y-94140000D01*
X80261899Y-93528961D01*
X80083666Y-92941404D01*
X79794230Y-92399909D01*
X79404716Y-91925284D01*
X78930091Y-91535770D01*
X78388596Y-91246334D01*
X77801039Y-91068101D01*
X77343120Y-91023000D01*
X75056880Y-91023000D01*
X74598961Y-91068101D01*
X74011404Y-91246334D01*
X73469909Y-91535770D01*
X72995284Y-91925284D01*
X72605770Y-92399909D01*
X72316334Y-92941404D01*
X72138101Y-93528961D01*
X72077919Y-94140000D01*
X65652000Y-94140000D01*
X65652000Y-84632923D01*
X71273000Y-84632923D01*
X71273000Y-85367077D01*
X71416227Y-86087126D01*
X71697176Y-86765396D01*
X72105050Y-87375824D01*
X72624176Y-87894950D01*
X73234604Y-88302824D01*
X73912874Y-88583773D01*
X74632923Y-88727000D01*
X75367077Y-88727000D01*
X76087126Y-88583773D01*
X76765396Y-88302824D01*
X77375824Y-87894950D01*
X77894950Y-87375824D01*
X78199521Y-86920000D01*
X86407709Y-86920000D01*
X86407709Y-90880000D01*
X86448776Y-91296965D01*
X86570401Y-91697906D01*
X86767907Y-92067415D01*
X87033707Y-92391293D01*
X87357585Y-92657093D01*
X87727094Y-92854599D01*
X88128035Y-92976224D01*
X88545000Y-93017291D01*
X90525000Y-93017291D01*
X90941965Y-92976224D01*
X91342906Y-92854599D01*
X91712415Y-92657093D01*
X92036293Y-92391293D01*
X92302093Y-92067415D01*
X92499599Y-91697906D01*
X92621224Y-91296965D01*
X92662291Y-90880000D01*
X92662291Y-89027000D01*
X92910000Y-89027000D01*
X92910000Y-90017000D01*
X92966000Y-90331582D01*
X93082296Y-90629194D01*
X93254419Y-90898399D01*
X93475754Y-91128852D01*
X93737795Y-91311696D01*
X94030472Y-91439905D01*
X94156135Y-91470218D01*
X94408000Y-91350740D01*
X94408000Y-89027000D01*
X94662000Y-89027000D01*
X94662000Y-91350740D01*
X94913865Y-91470218D01*
X95039528Y-91439905D01*
X95332205Y-91311696D01*
X95594246Y-91128852D01*
X95815581Y-90898399D01*
X95987704Y-90629194D01*
X96104000Y-90331582D01*
X96160000Y-90017000D01*
X96160000Y-89027000D01*
X94662000Y-89027000D01*
X94408000Y-89027000D01*
X92910000Y-89027000D01*
X92662291Y-89027000D01*
X92662291Y-87783000D01*
X92910000Y-87783000D01*
X92910000Y-88773000D01*
X94408000Y-88773000D01*
X94408000Y-86449260D01*
X94662000Y-86449260D01*
X94662000Y-88773000D01*
X96160000Y-88773000D01*
X96160000Y-87783000D01*
X96104000Y-87468418D01*
X95987704Y-87170806D01*
X95827345Y-86920000D01*
X99107709Y-86920000D01*
X99107709Y-90880000D01*
X99148776Y-91296965D01*
X99270401Y-91697906D01*
X99467907Y-92067415D01*
X99733707Y-92391293D01*
X100057585Y-92657093D01*
X100427094Y-92854599D01*
X100828035Y-92976224D01*
X101245000Y-93017291D01*
X103225000Y-93017291D01*
X103641965Y-92976224D01*
X104042906Y-92854599D01*
X104412415Y-92657093D01*
X104736293Y-92391293D01*
X105002093Y-92067415D01*
X105199599Y-91697906D01*
X105321224Y-91296965D01*
X105362291Y-90880000D01*
X105362291Y-89027000D01*
X105610000Y-89027000D01*
X105610000Y-90017000D01*
X105666000Y-90331582D01*
X105782296Y-90629194D01*
X105954419Y-90898399D01*
X106175754Y-91128852D01*
X106437795Y-91311696D01*
X106730472Y-91439905D01*
X106856135Y-91470218D01*
X107108000Y-91350740D01*
X107108000Y-89027000D01*
X107362000Y-89027000D01*
X107362000Y-91350740D01*
X107613865Y-91470218D01*
X107739528Y-91439905D01*
X108032205Y-91311696D01*
X108294246Y-91128852D01*
X108515581Y-90898399D01*
X108687704Y-90629194D01*
X108804000Y-90331582D01*
X108860000Y-90017000D01*
X108860000Y-89027000D01*
X107362000Y-89027000D01*
X107108000Y-89027000D01*
X105610000Y-89027000D01*
X105362291Y-89027000D01*
X105362291Y-87783000D01*
X105610000Y-87783000D01*
X105610000Y-88773000D01*
X107108000Y-88773000D01*
X107108000Y-86449260D01*
X107362000Y-86449260D01*
X107362000Y-88773000D01*
X108860000Y-88773000D01*
X108860000Y-87783000D01*
X108804000Y-87468418D01*
X108687704Y-87170806D01*
X108515581Y-86901601D01*
X108294246Y-86671148D01*
X108032205Y-86488304D01*
X107739528Y-86360095D01*
X107613865Y-86329782D01*
X107362000Y-86449260D01*
X107108000Y-86449260D01*
X106856135Y-86329782D01*
X106730472Y-86360095D01*
X106437795Y-86488304D01*
X106175754Y-86671148D01*
X105954419Y-86901601D01*
X105782296Y-87170806D01*
X105666000Y-87468418D01*
X105610000Y-87783000D01*
X105362291Y-87783000D01*
X105362291Y-86920000D01*
X105321224Y-86503035D01*
X105199599Y-86102094D01*
X105002093Y-85732585D01*
X104736293Y-85408707D01*
X104412415Y-85142907D01*
X104042906Y-84945401D01*
X103641965Y-84823776D01*
X103225000Y-84782709D01*
X101245000Y-84782709D01*
X100828035Y-84823776D01*
X100427094Y-84945401D01*
X100057585Y-85142907D01*
X99733707Y-85408707D01*
X99467907Y-85732585D01*
X99270401Y-86102094D01*
X99148776Y-86503035D01*
X99107709Y-86920000D01*
X95827345Y-86920000D01*
X95815581Y-86901601D01*
X95594246Y-86671148D01*
X95332205Y-86488304D01*
X95039528Y-86360095D01*
X94913865Y-86329782D01*
X94662000Y-86449260D01*
X94408000Y-86449260D01*
X94156135Y-86329782D01*
X94030472Y-86360095D01*
X93737795Y-86488304D01*
X93475754Y-86671148D01*
X93254419Y-86901601D01*
X93082296Y-87170806D01*
X92966000Y-87468418D01*
X92910000Y-87783000D01*
X92662291Y-87783000D01*
X92662291Y-86920000D01*
X92621224Y-86503035D01*
X92499599Y-86102094D01*
X92302093Y-85732585D01*
X92036293Y-85408707D01*
X91712415Y-85142907D01*
X91342906Y-84945401D01*
X90941965Y-84823776D01*
X90525000Y-84782709D01*
X88545000Y-84782709D01*
X88128035Y-84823776D01*
X87727094Y-84945401D01*
X87357585Y-85142907D01*
X87033707Y-85408707D01*
X86767907Y-85732585D01*
X86570401Y-86102094D01*
X86448776Y-86503035D01*
X86407709Y-86920000D01*
X78199521Y-86920000D01*
X78302824Y-86765396D01*
X78583773Y-86087126D01*
X78727000Y-85367077D01*
X78727000Y-84632923D01*
X136273000Y-84632923D01*
X136273000Y-85367077D01*
X136416227Y-86087126D01*
X136697176Y-86765396D01*
X137105050Y-87375824D01*
X137624176Y-87894950D01*
X138234604Y-88302824D01*
X138912874Y-88583773D01*
X139632923Y-88727000D01*
X140367077Y-88727000D01*
X141087126Y-88583773D01*
X141765396Y-88302824D01*
X142375824Y-87894950D01*
X142894950Y-87375824D01*
X143302824Y-86765396D01*
X143583773Y-86087126D01*
X143727000Y-85367077D01*
X143727000Y-84632923D01*
X143583773Y-83912874D01*
X143302824Y-83234604D01*
X142894950Y-82624176D01*
X142375824Y-82105050D01*
X141765396Y-81697176D01*
X141087126Y-81416227D01*
X140367077Y-81273000D01*
X139632923Y-81273000D01*
X138912874Y-81416227D01*
X138234604Y-81697176D01*
X137624176Y-82105050D01*
X137105050Y-82624176D01*
X136697176Y-83234604D01*
X136416227Y-83912874D01*
X136273000Y-84632923D01*
X78727000Y-84632923D01*
X78583773Y-83912874D01*
X78302824Y-83234604D01*
X77894950Y-82624176D01*
X77375824Y-82105050D01*
X76765396Y-81697176D01*
X76087126Y-81416227D01*
X75367077Y-81273000D01*
X74632923Y-81273000D01*
X73912874Y-81416227D01*
X73234604Y-81697176D01*
X72624176Y-82105050D01*
X72105050Y-82624176D01*
X71697176Y-83234604D01*
X71416227Y-83912874D01*
X71273000Y-84632923D01*
X65652000Y-84632923D01*
X65652000Y-79622000D01*
X152788001Y-79622000D01*
X152788000Y-146438000D01*
M02*
